G04 #@! TF.GenerationSoftware,KiCad,Pcbnew,7.0.7*
G04 #@! TF.CreationDate,2024-03-03T16:13:36-05:00*
G04 #@! TF.ProjectId,Gamecube_SP1,47616d65-6375-4626-955f-5350312e6b69,rev?*
G04 #@! TF.SameCoordinates,Original*
G04 #@! TF.FileFunction,Copper,L1,Top*
G04 #@! TF.FilePolarity,Positive*
%FSLAX46Y46*%
G04 Gerber Fmt 4.6, Leading zero omitted, Abs format (unit mm)*
G04 Created by KiCad (PCBNEW 7.0.7) date 2024-03-03 16:13:36*
%MOMM*%
%LPD*%
G01*
G04 APERTURE LIST*
G04 #@! TA.AperFunction,NonConductor*
%ADD10C,0.200000*%
G04 #@! TD*
G04 #@! TA.AperFunction,ComponentPad*
%ADD11R,1.700000X1.700000*%
G04 #@! TD*
G04 #@! TA.AperFunction,ComponentPad*
%ADD12O,1.700000X1.700000*%
G04 #@! TD*
G04 #@! TA.AperFunction,SMDPad,CuDef*
%ADD13R,1.500000X7.000000*%
G04 #@! TD*
G04 #@! TA.AperFunction,ViaPad*
%ADD14C,0.800000*%
G04 #@! TD*
G04 #@! TA.AperFunction,Conductor*
%ADD15C,0.250000*%
G04 #@! TD*
G04 #@! TA.AperFunction,Conductor*
%ADD16C,0.600000*%
G04 #@! TD*
G04 APERTURE END LIST*
D10*
X96781103Y-115622502D02*
X96520000Y-114300000D01*
X99291730Y-115735158D02*
X99060000Y-114300000D01*
D11*
X72111319Y-116251337D03*
D12*
X72111319Y-113711337D03*
X74651319Y-116251337D03*
X74651319Y-113711337D03*
X77191319Y-116251337D03*
X77191319Y-113711337D03*
X79731319Y-116251337D03*
X79731319Y-113711337D03*
X82271319Y-116251337D03*
X82271319Y-113711337D03*
X84811319Y-116251337D03*
X84811319Y-113711337D03*
D13*
X101064286Y-115900000D03*
X99064286Y-115900000D03*
X97064286Y-115900000D03*
X95064286Y-115900000D03*
X93064286Y-115900000D03*
X91064286Y-115900000D03*
D14*
X96314286Y-102313640D03*
X82880000Y-118400000D03*
X76200000Y-106680000D03*
X108400000Y-110290800D03*
X71120000Y-106680000D03*
X108400000Y-102600000D03*
X71120000Y-119380000D03*
X102020000Y-102700000D03*
X76500000Y-102700000D03*
X99060000Y-106680000D03*
X89200000Y-103599500D03*
X101600000Y-106680000D03*
X71120000Y-109220000D03*
X76500000Y-118400000D03*
X108400000Y-117500000D03*
X71120000Y-104140000D03*
X82880000Y-102700000D03*
X104140000Y-110390800D03*
D15*
X72111319Y-113711337D02*
X80373156Y-105449500D01*
X101064286Y-111224286D02*
X101064286Y-115900000D01*
X80373156Y-105449500D02*
X95289500Y-105449500D01*
X95289500Y-105449500D02*
X101064286Y-111224286D01*
X77191319Y-113711337D02*
X78069618Y-113711337D01*
X84381455Y-107399500D02*
X92159500Y-107399500D01*
X92159500Y-107399500D02*
X97232152Y-112472152D01*
X97232152Y-112472152D02*
X97232152Y-115781066D01*
X97232152Y-115781066D02*
X97093582Y-115919636D01*
X78069618Y-113711337D02*
X84381455Y-107399500D01*
D16*
X92442002Y-108899500D02*
X95064286Y-111521784D01*
X95064286Y-111521784D02*
X95064286Y-115900000D01*
X84543156Y-108899500D02*
X92442002Y-108899500D01*
X79731319Y-113711337D02*
X84543156Y-108899500D01*
D15*
X74651319Y-113711337D02*
X82463156Y-105899500D01*
X98612373Y-115668976D02*
X98971675Y-116028278D01*
X93199500Y-105899500D02*
X98612373Y-111312373D01*
X82463156Y-105899500D02*
X93199500Y-105899500D01*
X98612373Y-111312373D02*
X98612373Y-115668976D01*
X90708072Y-110399500D02*
X93064286Y-112755714D01*
X82240286Y-113339714D02*
X85180500Y-110399500D01*
X93064286Y-112755714D02*
X93064286Y-115900000D01*
X85180500Y-110399500D02*
X90708072Y-110399500D01*
X82240286Y-113710000D02*
X82240286Y-113339714D01*
X84811319Y-113711337D02*
X86372656Y-112150000D01*
X90064286Y-112150000D02*
X91064286Y-113150000D01*
X86372656Y-112150000D02*
X90064286Y-112150000D01*
X91064286Y-113150000D02*
X91064286Y-115900000D01*
G04 #@! TA.AperFunction,Conductor*
G36*
X110430907Y-101095502D02*
G01*
X110477400Y-101149158D01*
X110488786Y-101201500D01*
X110488786Y-119798500D01*
X110468784Y-119866621D01*
X110415128Y-119913114D01*
X110362786Y-119924500D01*
X105265786Y-119924500D01*
X105197665Y-119904498D01*
X105151172Y-119850842D01*
X105139786Y-119798500D01*
X105139786Y-113045529D01*
X105141700Y-113023648D01*
X105143408Y-113013955D01*
X105143410Y-113013952D01*
X105141700Y-113004253D01*
X105140535Y-112990940D01*
X105139786Y-112986692D01*
X105139786Y-112986688D01*
X105139784Y-112986683D01*
X105139034Y-112982428D01*
X105135576Y-112969522D01*
X105133867Y-112959829D01*
X105133867Y-112959828D01*
X105133865Y-112959827D01*
X105130348Y-112953735D01*
X105125835Y-112948355D01*
X105117302Y-112943429D01*
X105099311Y-112930831D01*
X105091765Y-112924499D01*
X105085167Y-112922097D01*
X105078238Y-112920875D01*
X105068540Y-112922586D01*
X105046661Y-112924500D01*
X103109816Y-112924500D01*
X103087936Y-112922586D01*
X103078238Y-112920875D01*
X103068540Y-112922586D01*
X103055224Y-112923750D01*
X103046739Y-112925246D01*
X103033825Y-112928706D01*
X103024113Y-112930419D01*
X103018023Y-112933934D01*
X103012640Y-112938452D01*
X103007712Y-112946987D01*
X102995121Y-112964969D01*
X102988785Y-112972519D01*
X102986383Y-112979119D01*
X102985162Y-112986048D01*
X102986872Y-112995746D01*
X102988786Y-113017624D01*
X102988786Y-119396457D01*
X102988390Y-119403517D01*
X102977225Y-119502604D01*
X102970946Y-119530112D01*
X102941533Y-119614167D01*
X102929290Y-119639589D01*
X102881907Y-119714996D01*
X102864316Y-119737054D01*
X102801343Y-119800026D01*
X102779283Y-119817618D01*
X102703881Y-119864995D01*
X102678459Y-119877237D01*
X102594399Y-119906649D01*
X102566891Y-119912927D01*
X102494857Y-119921042D01*
X102467677Y-119924104D01*
X102460622Y-119924500D01*
X102307937Y-119924500D01*
X102239816Y-119904498D01*
X102193323Y-119850842D01*
X102183219Y-119780568D01*
X102207069Y-119722991D01*
X102264730Y-119645965D01*
X102264730Y-119645964D01*
X102315780Y-119509093D01*
X102322285Y-119448597D01*
X102322286Y-119448585D01*
X102322286Y-116154000D01*
X100936286Y-116154000D01*
X100868165Y-116133998D01*
X100821672Y-116080342D01*
X100810286Y-116028000D01*
X100810286Y-111892000D01*
X101318286Y-111892000D01*
X101318286Y-115646000D01*
X102322286Y-115646000D01*
X102322286Y-112351414D01*
X102322285Y-112351402D01*
X102315780Y-112290906D01*
X102264730Y-112154035D01*
X102264730Y-112154034D01*
X102177190Y-112037095D01*
X102060251Y-111949555D01*
X101923379Y-111898505D01*
X101862883Y-111892000D01*
X101318286Y-111892000D01*
X100810286Y-111892000D01*
X100265688Y-111892000D01*
X100205190Y-111898505D01*
X100109031Y-111934370D01*
X100038215Y-111939434D01*
X100020972Y-111934371D01*
X99923487Y-111898011D01*
X99923485Y-111898010D01*
X99923483Y-111898010D01*
X99923482Y-111898009D01*
X99862935Y-111891500D01*
X99862924Y-111891500D01*
X99371873Y-111891500D01*
X99303752Y-111871498D01*
X99257259Y-111817842D01*
X99245873Y-111765500D01*
X99245873Y-111396222D01*
X99247622Y-111380385D01*
X99247328Y-111380358D01*
X99248074Y-111372465D01*
X99245873Y-111302432D01*
X99245873Y-111272524D01*
X99245873Y-111272517D01*
X99244993Y-111265558D01*
X99244528Y-111259653D01*
X99243046Y-111212483D01*
X99237395Y-111193036D01*
X99233385Y-111173673D01*
X99230847Y-111153576D01*
X99213473Y-111109696D01*
X99211557Y-111104098D01*
X99198391Y-111058779D01*
X99188073Y-111041334D01*
X99179378Y-111023582D01*
X99171926Y-111004758D01*
X99171923Y-111004752D01*
X99144191Y-110966583D01*
X99140935Y-110961626D01*
X99116915Y-110921010D01*
X99116913Y-110921008D01*
X99116913Y-110921007D01*
X99102591Y-110906685D01*
X99089750Y-110891652D01*
X99077844Y-110875265D01*
X99070402Y-110869108D01*
X99041481Y-110845183D01*
X99037109Y-110841204D01*
X93706744Y-105510839D01*
X93696779Y-105498401D01*
X93696552Y-105498590D01*
X93691501Y-105492484D01*
X93691500Y-105492482D01*
X93640421Y-105444516D01*
X93629930Y-105434025D01*
X93619277Y-105423371D01*
X93619272Y-105423366D01*
X93613725Y-105419063D01*
X93609217Y-105415212D01*
X93574825Y-105382917D01*
X93574819Y-105382913D01*
X93557063Y-105373151D01*
X93540547Y-105362302D01*
X93524541Y-105349886D01*
X93493789Y-105336578D01*
X93481240Y-105331148D01*
X93475908Y-105328536D01*
X93434561Y-105305805D01*
X93414936Y-105300766D01*
X93396236Y-105294364D01*
X93377645Y-105286319D01*
X93377643Y-105286318D01*
X93377642Y-105286318D01*
X93331042Y-105278937D01*
X93325229Y-105277733D01*
X93279530Y-105266000D01*
X93259276Y-105266000D01*
X93239566Y-105264449D01*
X93219557Y-105261280D01*
X93219556Y-105261280D01*
X93172583Y-105265720D01*
X93166650Y-105266000D01*
X82547009Y-105266000D01*
X82531167Y-105264250D01*
X82531140Y-105264544D01*
X82523247Y-105263797D01*
X82453184Y-105266000D01*
X82423300Y-105266000D01*
X82423296Y-105266000D01*
X82423285Y-105266001D01*
X82416346Y-105266877D01*
X82410433Y-105267343D01*
X82363270Y-105268825D01*
X82363263Y-105268827D01*
X82343805Y-105274479D01*
X82324460Y-105278485D01*
X82304362Y-105281025D01*
X82304353Y-105281027D01*
X82260487Y-105298394D01*
X82254872Y-105300317D01*
X82209564Y-105313481D01*
X82192120Y-105323797D01*
X82174374Y-105332490D01*
X82155538Y-105339948D01*
X82117365Y-105367681D01*
X82112404Y-105370940D01*
X82071794Y-105394958D01*
X82057467Y-105409284D01*
X82042441Y-105422117D01*
X82026051Y-105434025D01*
X82026049Y-105434027D01*
X81995964Y-105470392D01*
X81991968Y-105474783D01*
X75109112Y-112357637D01*
X75046800Y-112391663D01*
X74991100Y-112390719D01*
X74991095Y-112390751D01*
X74990882Y-112390715D01*
X74989078Y-112390685D01*
X74985962Y-112389895D01*
X74985954Y-112389893D01*
X74763888Y-112352837D01*
X74538750Y-112352837D01*
X74394290Y-112376943D01*
X74316688Y-112389892D01*
X74316679Y-112389894D01*
X74103747Y-112462993D01*
X74103745Y-112462995D01*
X73905745Y-112570147D01*
X73905743Y-112570148D01*
X73728081Y-112708428D01*
X73575598Y-112874066D01*
X73486502Y-113010438D01*
X73432498Y-113056526D01*
X73362150Y-113066101D01*
X73297793Y-113036123D01*
X73275536Y-113010437D01*
X73186646Y-112874381D01*
X73034221Y-112708802D01*
X72856620Y-112570569D01*
X72856619Y-112570568D01*
X72658690Y-112463454D01*
X72658688Y-112463453D01*
X72445831Y-112390380D01*
X72445820Y-112390377D01*
X72365319Y-112376943D01*
X72365319Y-113097303D01*
X72345317Y-113165424D01*
X72291661Y-113211917D01*
X72221388Y-113222020D01*
X72221387Y-113222020D01*
X72147087Y-113211337D01*
X72147082Y-113211337D01*
X72075556Y-113211337D01*
X72075550Y-113211337D01*
X72001251Y-113222020D01*
X71930977Y-113211917D01*
X71877321Y-113165424D01*
X71857319Y-113097303D01*
X71857319Y-112376944D01*
X71857318Y-112376943D01*
X71776817Y-112390377D01*
X71776806Y-112390380D01*
X71563949Y-112463453D01*
X71563947Y-112463454D01*
X71366018Y-112570568D01*
X71366017Y-112570569D01*
X71188416Y-112708802D01*
X71035993Y-112874378D01*
X70912899Y-113062788D01*
X70822498Y-113268880D01*
X70822495Y-113268887D01*
X70774774Y-113457336D01*
X70774775Y-113457337D01*
X71496475Y-113457337D01*
X71564596Y-113477339D01*
X71611089Y-113530995D01*
X71621193Y-113601269D01*
X71617372Y-113618833D01*
X71611319Y-113639448D01*
X71611319Y-113783225D01*
X71617372Y-113803841D01*
X71617371Y-113874837D01*
X71578986Y-113934563D01*
X71514405Y-113964055D01*
X71496475Y-113965337D01*
X70774774Y-113965337D01*
X70822495Y-114153786D01*
X70822498Y-114153793D01*
X70912899Y-114359885D01*
X71035993Y-114548295D01*
X71179300Y-114703969D01*
X71210720Y-114767634D01*
X71202733Y-114838180D01*
X71157874Y-114893209D01*
X71130632Y-114907361D01*
X71015114Y-114950448D01*
X71015111Y-114950449D01*
X70898057Y-115038075D01*
X70810431Y-115155129D01*
X70810429Y-115155134D01*
X70759330Y-115292132D01*
X70759328Y-115292140D01*
X70752819Y-115352687D01*
X70752819Y-117149986D01*
X70759328Y-117210533D01*
X70759330Y-117210541D01*
X70810429Y-117347539D01*
X70810431Y-117347544D01*
X70898057Y-117464598D01*
X71015111Y-117552224D01*
X71015113Y-117552225D01*
X71015115Y-117552226D01*
X71070219Y-117572779D01*
X71152114Y-117603325D01*
X71152122Y-117603327D01*
X71212669Y-117609836D01*
X71212674Y-117609836D01*
X71212681Y-117609837D01*
X71212687Y-117609837D01*
X73009951Y-117609837D01*
X73009957Y-117609837D01*
X73009964Y-117609836D01*
X73009968Y-117609836D01*
X73070515Y-117603327D01*
X73070518Y-117603326D01*
X73070520Y-117603326D01*
X73207523Y-117552226D01*
X73277718Y-117499679D01*
X73324580Y-117464598D01*
X73412205Y-117347545D01*
X73412204Y-117347545D01*
X73412208Y-117347541D01*
X73456318Y-117229276D01*
X73498864Y-117172444D01*
X73565385Y-117147633D01*
X73634759Y-117162725D01*
X73667072Y-117187972D01*
X73687848Y-117210541D01*
X73728081Y-117254245D01*
X73782650Y-117296718D01*
X73905743Y-117392526D01*
X74103745Y-117499679D01*
X74103746Y-117499679D01*
X74103747Y-117499680D01*
X74215546Y-117538060D01*
X74316684Y-117572781D01*
X74538750Y-117609837D01*
X74538754Y-117609837D01*
X74763884Y-117609837D01*
X74763888Y-117609837D01*
X74985954Y-117572781D01*
X75198893Y-117499679D01*
X75396895Y-117392526D01*
X75574559Y-117254243D01*
X75727041Y-117088605D01*
X75815837Y-116952691D01*
X75869839Y-116906605D01*
X75940187Y-116897029D01*
X76004544Y-116927006D01*
X76026799Y-116952690D01*
X76059926Y-117003395D01*
X76115594Y-117088602D01*
X76115598Y-117088607D01*
X76268081Y-117254245D01*
X76322650Y-117296718D01*
X76445743Y-117392526D01*
X76643745Y-117499679D01*
X76643746Y-117499679D01*
X76643747Y-117499680D01*
X76755546Y-117538060D01*
X76856684Y-117572781D01*
X77078750Y-117609837D01*
X77078754Y-117609837D01*
X77303884Y-117609837D01*
X77303888Y-117609837D01*
X77525954Y-117572781D01*
X77738893Y-117499679D01*
X77936895Y-117392526D01*
X78114559Y-117254243D01*
X78267041Y-117088605D01*
X78355838Y-116952690D01*
X78409837Y-116906605D01*
X78480185Y-116897029D01*
X78544543Y-116927005D01*
X78566801Y-116952693D01*
X78655594Y-117088602D01*
X78655598Y-117088607D01*
X78808081Y-117254245D01*
X78862650Y-117296718D01*
X78985743Y-117392526D01*
X79183745Y-117499679D01*
X79183746Y-117499679D01*
X79183747Y-117499680D01*
X79295546Y-117538060D01*
X79396684Y-117572781D01*
X79618750Y-117609837D01*
X79618754Y-117609837D01*
X79843884Y-117609837D01*
X79843888Y-117609837D01*
X80065954Y-117572781D01*
X80278893Y-117499679D01*
X80476895Y-117392526D01*
X80654559Y-117254243D01*
X80807041Y-117088605D01*
X80895837Y-116952691D01*
X80949839Y-116906605D01*
X81020187Y-116897029D01*
X81084544Y-116927006D01*
X81106799Y-116952690D01*
X81139926Y-117003395D01*
X81195594Y-117088602D01*
X81195598Y-117088607D01*
X81348081Y-117254245D01*
X81402650Y-117296718D01*
X81525743Y-117392526D01*
X81723745Y-117499679D01*
X81723746Y-117499679D01*
X81723747Y-117499680D01*
X81835546Y-117538060D01*
X81936684Y-117572781D01*
X82158750Y-117609837D01*
X82158754Y-117609837D01*
X82383884Y-117609837D01*
X82383888Y-117609837D01*
X82605954Y-117572781D01*
X82818893Y-117499679D01*
X83016895Y-117392526D01*
X83194559Y-117254243D01*
X83347041Y-117088605D01*
X83435837Y-116952691D01*
X83489839Y-116906605D01*
X83560187Y-116897029D01*
X83624544Y-116927006D01*
X83646799Y-116952690D01*
X83679926Y-117003395D01*
X83735594Y-117088602D01*
X83735598Y-117088607D01*
X83888081Y-117254245D01*
X83942650Y-117296718D01*
X84065743Y-117392526D01*
X84263745Y-117499679D01*
X84263746Y-117499679D01*
X84263747Y-117499680D01*
X84375546Y-117538060D01*
X84476684Y-117572781D01*
X84698750Y-117609837D01*
X84698754Y-117609837D01*
X84923884Y-117609837D01*
X84923888Y-117609837D01*
X85145954Y-117572781D01*
X85358893Y-117499679D01*
X85556895Y-117392526D01*
X85734559Y-117254243D01*
X85887041Y-117088605D01*
X86010179Y-116900128D01*
X86100615Y-116693953D01*
X86155883Y-116475705D01*
X86174475Y-116251337D01*
X86155883Y-116026969D01*
X86100615Y-115808721D01*
X86010179Y-115602546D01*
X85992819Y-115575974D01*
X85887043Y-115414071D01*
X85887039Y-115414066D01*
X85734556Y-115248428D01*
X85614686Y-115155129D01*
X85556895Y-115110148D01*
X85523638Y-115092150D01*
X85473248Y-115042139D01*
X85457895Y-114972822D01*
X85482455Y-114906209D01*
X85523639Y-114870523D01*
X85556895Y-114852526D01*
X85734559Y-114714243D01*
X85887041Y-114548605D01*
X86010179Y-114360128D01*
X86100615Y-114153953D01*
X86155883Y-113935705D01*
X86174475Y-113711337D01*
X86155883Y-113486969D01*
X86128136Y-113377399D01*
X86130803Y-113306455D01*
X86161183Y-113257376D01*
X86598156Y-112820404D01*
X86660469Y-112786379D01*
X86687252Y-112783500D01*
X87877637Y-112783500D01*
X87945758Y-112803502D01*
X87992251Y-112857158D01*
X88002355Y-112927432D01*
X87996037Y-112952597D01*
X87986384Y-112979116D01*
X87985162Y-112986048D01*
X87986872Y-112995746D01*
X87988786Y-113017624D01*
X87988786Y-119798500D01*
X87968784Y-119866621D01*
X87915128Y-119913114D01*
X87862786Y-119924500D01*
X68765786Y-119924500D01*
X68697665Y-119904498D01*
X68651172Y-119850842D01*
X68639786Y-119798500D01*
X68639786Y-101201500D01*
X68659788Y-101133379D01*
X68713444Y-101086886D01*
X68765786Y-101075500D01*
X110362786Y-101075500D01*
X110430907Y-101095502D01*
G37*
G04 #@! TD.AperFunction*
M02*
