M48
; DRILL file {KiCad 7.0.7} date Sun Mar  3 16:13:55 2024
; FORMAT={-:-/ absolute / metric / decimal}
; #@! TF.CreationDate,2024-03-03T16:13:55-05:00
; #@! TF.GenerationSoftware,Kicad,Pcbnew,7.0.7
; #@! TF.FileFunction,Plated,1,2,PTH
FMAT,2
METRIC
; #@! TA.AperFunction,Plated,PTH,ViaDrill
T1C0.400
; #@! TA.AperFunction,Plated,PTH,ComponentDrill
T2C1.000
%
G90
G05
T1
X71.12Y-104.14
X71.12Y-106.68
X71.12Y-109.22
X71.12Y-119.38
X76.2Y-106.68
X76.5Y-102.7
X76.5Y-118.4
X82.88Y-102.7
X82.88Y-118.4
X89.2Y-103.599
X96.314Y-102.314
X99.06Y-106.68
X101.6Y-106.68
X102.02Y-102.7
X104.14Y-110.391
X108.4Y-102.6
X108.4Y-110.291
X108.4Y-117.5
T2
X72.111Y-113.711
X72.111Y-116.251
X74.651Y-113.711
X74.651Y-116.251
X77.191Y-113.711
X77.191Y-116.251
X79.731Y-113.711
X79.731Y-116.251
X82.271Y-113.711
X82.271Y-116.251
X84.811Y-113.711
X84.811Y-116.251
T0
M30
