%TF.GenerationSoftware,KiCad,Pcbnew,7.0.7*%
%TF.CreationDate,2024-03-03T16:13:55-05:00*%
%TF.ProjectId,Gamecube_SP1,47616d65-6375-4626-955f-5350312e6b69,rev?*%
%TF.SameCoordinates,Original*%
%TF.FileFunction,Drillmap*%
%TF.FilePolarity,Positive*%
%FSLAX45Y45*%
G04 Gerber Fmt 4.5, Leading zero omitted, Abs format (unit mm)*
G04 Created by KiCad (PCBNEW 7.0.7) date 2024-03-03 16:13:55*
%MOMM*%
%LPD*%
G01*
G04 APERTURE LIST*
%ADD10C,0.150000*%
%ADD11C,0.200000*%
%ADD12C,0.040000*%
%ADD13C,0.100000*%
G04 APERTURE END LIST*
D10*
X10246429Y-11999999D02*
G75*
G03*
X10306429Y-11940000I1J59999D01*
G01*
X8806429Y-12000000D02*
X6856429Y-12000000D01*
X9066429Y-12000000D02*
X10246429Y-12000000D01*
X9006430Y-11940000D02*
G75*
G03*
X9066429Y-12000000I60000J0D01*
G01*
X10506429Y-11300000D02*
X10506429Y-12000000D01*
X11056429Y-10100000D02*
X11056429Y-12000000D01*
X9006429Y-11940000D02*
X9006429Y-11300000D01*
X10306429Y-11300000D02*
X10506429Y-11300000D01*
X6856429Y-12000000D02*
X6856429Y-10100000D01*
X10506429Y-12000000D02*
X11056429Y-12000000D01*
X6856429Y-10100000D02*
X11056429Y-10100000D01*
X10306429Y-11940000D02*
X10306429Y-11300000D01*
X8806429Y-11300000D02*
X9006429Y-11300000D01*
X8806429Y-11300000D02*
X8806429Y-12000000D01*
D11*
D12*
X7092000Y-10394000D02*
X7132000Y-10434000D01*
X7132000Y-10394000D02*
X7092000Y-10434000D01*
X7092000Y-10648000D02*
X7132000Y-10688000D01*
X7132000Y-10648000D02*
X7092000Y-10688000D01*
X7092000Y-10902000D02*
X7132000Y-10942000D01*
X7132000Y-10902000D02*
X7092000Y-10942000D01*
X7092000Y-11918000D02*
X7132000Y-11958000D01*
X7132000Y-11918000D02*
X7092000Y-11958000D01*
X7600000Y-10648000D02*
X7640000Y-10688000D01*
X7640000Y-10648000D02*
X7600000Y-10688000D01*
X7630000Y-10250000D02*
X7670000Y-10290000D01*
X7670000Y-10250000D02*
X7630000Y-10290000D01*
X7630000Y-11820000D02*
X7670000Y-11860000D01*
X7670000Y-11820000D02*
X7630000Y-11860000D01*
X8268000Y-10250000D02*
X8308000Y-10290000D01*
X8308000Y-10250000D02*
X8268000Y-10290000D01*
X8268000Y-11820000D02*
X8308000Y-11860000D01*
X8308000Y-11820000D02*
X8268000Y-11860000D01*
X8900000Y-10339950D02*
X8940000Y-10379950D01*
X8940000Y-10339950D02*
X8900000Y-10379950D01*
X9611429Y-10211364D02*
X9651429Y-10251364D01*
X9651429Y-10211364D02*
X9611429Y-10251364D01*
X9886000Y-10648000D02*
X9926000Y-10688000D01*
X9926000Y-10648000D02*
X9886000Y-10688000D01*
X10140000Y-10648000D02*
X10180000Y-10688000D01*
X10180000Y-10648000D02*
X10140000Y-10688000D01*
X10182000Y-10250000D02*
X10222000Y-10290000D01*
X10222000Y-10250000D02*
X10182000Y-10290000D01*
X10394000Y-11019080D02*
X10434000Y-11059080D01*
X10434000Y-11019080D02*
X10394000Y-11059080D01*
X10820000Y-10240000D02*
X10860000Y-10280000D01*
X10860000Y-10240000D02*
X10820000Y-10280000D01*
X10820000Y-11009080D02*
X10860000Y-11049080D01*
X10860000Y-11009080D02*
X10820000Y-11049080D01*
X10820000Y-11730000D02*
X10860000Y-11770000D01*
X10860000Y-11730000D02*
X10820000Y-11770000D01*
D13*
X7261132Y-11371134D02*
G75*
G03*
X7261132Y-11371134I-50000J0D01*
G01*
X7261132Y-11625134D02*
G75*
G03*
X7261132Y-11625134I-50000J0D01*
G01*
X7515132Y-11371134D02*
G75*
G03*
X7515132Y-11371134I-50000J0D01*
G01*
X7515132Y-11625134D02*
G75*
G03*
X7515132Y-11625134I-50000J0D01*
G01*
X7769132Y-11371134D02*
G75*
G03*
X7769132Y-11371134I-50000J0D01*
G01*
X7769132Y-11625134D02*
G75*
G03*
X7769132Y-11625134I-50000J0D01*
G01*
X8023132Y-11371134D02*
G75*
G03*
X8023132Y-11371134I-50000J0D01*
G01*
X8023132Y-11625134D02*
G75*
G03*
X8023132Y-11625134I-50000J0D01*
G01*
X8277132Y-11371134D02*
G75*
G03*
X8277132Y-11371134I-50000J0D01*
G01*
X8277132Y-11625134D02*
G75*
G03*
X8277132Y-11625134I-50000J0D01*
G01*
X8531132Y-11371134D02*
G75*
G03*
X8531132Y-11371134I-50000J0D01*
G01*
X8531132Y-11625134D02*
G75*
G03*
X8531132Y-11625134I-50000J0D01*
G01*
D11*
X7109705Y-12318984D02*
X7109705Y-12118984D01*
X7109705Y-12118984D02*
X7157324Y-12118984D01*
X7157324Y-12118984D02*
X7185896Y-12128508D01*
X7185896Y-12128508D02*
X7204943Y-12147555D01*
X7204943Y-12147555D02*
X7214467Y-12166603D01*
X7214467Y-12166603D02*
X7223991Y-12204698D01*
X7223991Y-12204698D02*
X7223991Y-12233269D01*
X7223991Y-12233269D02*
X7214467Y-12271365D01*
X7214467Y-12271365D02*
X7204943Y-12290412D01*
X7204943Y-12290412D02*
X7185896Y-12309460D01*
X7185896Y-12309460D02*
X7157324Y-12318984D01*
X7157324Y-12318984D02*
X7109705Y-12318984D01*
X7309705Y-12318984D02*
X7309705Y-12185650D01*
X7309705Y-12223746D02*
X7319229Y-12204698D01*
X7319229Y-12204698D02*
X7328753Y-12195174D01*
X7328753Y-12195174D02*
X7347801Y-12185650D01*
X7347801Y-12185650D02*
X7366848Y-12185650D01*
X7433515Y-12318984D02*
X7433515Y-12185650D01*
X7433515Y-12118984D02*
X7423991Y-12128508D01*
X7423991Y-12128508D02*
X7433515Y-12138031D01*
X7433515Y-12138031D02*
X7443039Y-12128508D01*
X7443039Y-12128508D02*
X7433515Y-12118984D01*
X7433515Y-12118984D02*
X7433515Y-12138031D01*
X7557324Y-12318984D02*
X7538277Y-12309460D01*
X7538277Y-12309460D02*
X7528753Y-12290412D01*
X7528753Y-12290412D02*
X7528753Y-12118984D01*
X7662086Y-12318984D02*
X7643039Y-12309460D01*
X7643039Y-12309460D02*
X7633515Y-12290412D01*
X7633515Y-12290412D02*
X7633515Y-12118984D01*
X7890658Y-12318984D02*
X7890658Y-12118984D01*
X7890658Y-12118984D02*
X7957324Y-12261841D01*
X7957324Y-12261841D02*
X8023991Y-12118984D01*
X8023991Y-12118984D02*
X8023991Y-12318984D01*
X8204943Y-12318984D02*
X8204943Y-12214222D01*
X8204943Y-12214222D02*
X8195420Y-12195174D01*
X8195420Y-12195174D02*
X8176372Y-12185650D01*
X8176372Y-12185650D02*
X8138277Y-12185650D01*
X8138277Y-12185650D02*
X8119229Y-12195174D01*
X8204943Y-12309460D02*
X8185896Y-12318984D01*
X8185896Y-12318984D02*
X8138277Y-12318984D01*
X8138277Y-12318984D02*
X8119229Y-12309460D01*
X8119229Y-12309460D02*
X8109705Y-12290412D01*
X8109705Y-12290412D02*
X8109705Y-12271365D01*
X8109705Y-12271365D02*
X8119229Y-12252317D01*
X8119229Y-12252317D02*
X8138277Y-12242793D01*
X8138277Y-12242793D02*
X8185896Y-12242793D01*
X8185896Y-12242793D02*
X8204943Y-12233269D01*
X8300182Y-12185650D02*
X8300182Y-12385650D01*
X8300182Y-12195174D02*
X8319229Y-12185650D01*
X8319229Y-12185650D02*
X8357324Y-12185650D01*
X8357324Y-12185650D02*
X8376372Y-12195174D01*
X8376372Y-12195174D02*
X8385896Y-12204698D01*
X8385896Y-12204698D02*
X8395420Y-12223746D01*
X8395420Y-12223746D02*
X8395420Y-12280888D01*
X8395420Y-12280888D02*
X8385896Y-12299936D01*
X8385896Y-12299936D02*
X8376372Y-12309460D01*
X8376372Y-12309460D02*
X8357324Y-12318984D01*
X8357324Y-12318984D02*
X8319229Y-12318984D01*
X8319229Y-12318984D02*
X8300182Y-12309460D01*
X8481134Y-12299936D02*
X8490658Y-12309460D01*
X8490658Y-12309460D02*
X8481134Y-12318984D01*
X8481134Y-12318984D02*
X8471610Y-12309460D01*
X8471610Y-12309460D02*
X8481134Y-12299936D01*
X8481134Y-12299936D02*
X8481134Y-12318984D01*
X8481134Y-12195174D02*
X8490658Y-12204698D01*
X8490658Y-12204698D02*
X8481134Y-12214222D01*
X8481134Y-12214222D02*
X8471610Y-12204698D01*
X8471610Y-12204698D02*
X8481134Y-12195174D01*
X8481134Y-12195174D02*
X8481134Y-12214222D01*
D12*
X6808929Y-12627500D02*
X6848929Y-12667500D01*
X6848929Y-12627500D02*
X6808929Y-12667500D01*
D11*
X7147801Y-12538984D02*
X7166848Y-12538984D01*
X7166848Y-12538984D02*
X7185896Y-12548508D01*
X7185896Y-12548508D02*
X7195420Y-12558031D01*
X7195420Y-12558031D02*
X7204943Y-12577079D01*
X7204943Y-12577079D02*
X7214467Y-12615174D01*
X7214467Y-12615174D02*
X7214467Y-12662793D01*
X7214467Y-12662793D02*
X7204943Y-12700888D01*
X7204943Y-12700888D02*
X7195420Y-12719936D01*
X7195420Y-12719936D02*
X7185896Y-12729460D01*
X7185896Y-12729460D02*
X7166848Y-12738984D01*
X7166848Y-12738984D02*
X7147801Y-12738984D01*
X7147801Y-12738984D02*
X7128753Y-12729460D01*
X7128753Y-12729460D02*
X7119229Y-12719936D01*
X7119229Y-12719936D02*
X7109705Y-12700888D01*
X7109705Y-12700888D02*
X7100182Y-12662793D01*
X7100182Y-12662793D02*
X7100182Y-12615174D01*
X7100182Y-12615174D02*
X7109705Y-12577079D01*
X7109705Y-12577079D02*
X7119229Y-12558031D01*
X7119229Y-12558031D02*
X7128753Y-12548508D01*
X7128753Y-12548508D02*
X7147801Y-12538984D01*
X7300182Y-12719936D02*
X7309705Y-12729460D01*
X7309705Y-12729460D02*
X7300182Y-12738984D01*
X7300182Y-12738984D02*
X7290658Y-12729460D01*
X7290658Y-12729460D02*
X7300182Y-12719936D01*
X7300182Y-12719936D02*
X7300182Y-12738984D01*
X7481134Y-12605650D02*
X7481134Y-12738984D01*
X7433515Y-12529460D02*
X7385896Y-12672317D01*
X7385896Y-12672317D02*
X7509705Y-12672317D01*
X7623991Y-12538984D02*
X7643039Y-12538984D01*
X7643039Y-12538984D02*
X7662086Y-12548508D01*
X7662086Y-12548508D02*
X7671610Y-12558031D01*
X7671610Y-12558031D02*
X7681134Y-12577079D01*
X7681134Y-12577079D02*
X7690658Y-12615174D01*
X7690658Y-12615174D02*
X7690658Y-12662793D01*
X7690658Y-12662793D02*
X7681134Y-12700888D01*
X7681134Y-12700888D02*
X7671610Y-12719936D01*
X7671610Y-12719936D02*
X7662086Y-12729460D01*
X7662086Y-12729460D02*
X7643039Y-12738984D01*
X7643039Y-12738984D02*
X7623991Y-12738984D01*
X7623991Y-12738984D02*
X7604943Y-12729460D01*
X7604943Y-12729460D02*
X7595420Y-12719936D01*
X7595420Y-12719936D02*
X7585896Y-12700888D01*
X7585896Y-12700888D02*
X7576372Y-12662793D01*
X7576372Y-12662793D02*
X7576372Y-12615174D01*
X7576372Y-12615174D02*
X7585896Y-12577079D01*
X7585896Y-12577079D02*
X7595420Y-12558031D01*
X7595420Y-12558031D02*
X7604943Y-12548508D01*
X7604943Y-12548508D02*
X7623991Y-12538984D01*
X7814467Y-12538984D02*
X7833515Y-12538984D01*
X7833515Y-12538984D02*
X7852563Y-12548508D01*
X7852563Y-12548508D02*
X7862086Y-12558031D01*
X7862086Y-12558031D02*
X7871610Y-12577079D01*
X7871610Y-12577079D02*
X7881134Y-12615174D01*
X7881134Y-12615174D02*
X7881134Y-12662793D01*
X7881134Y-12662793D02*
X7871610Y-12700888D01*
X7871610Y-12700888D02*
X7862086Y-12719936D01*
X7862086Y-12719936D02*
X7852563Y-12729460D01*
X7852563Y-12729460D02*
X7833515Y-12738984D01*
X7833515Y-12738984D02*
X7814467Y-12738984D01*
X7814467Y-12738984D02*
X7795420Y-12729460D01*
X7795420Y-12729460D02*
X7785896Y-12719936D01*
X7785896Y-12719936D02*
X7776372Y-12700888D01*
X7776372Y-12700888D02*
X7766848Y-12662793D01*
X7766848Y-12662793D02*
X7766848Y-12615174D01*
X7766848Y-12615174D02*
X7776372Y-12577079D01*
X7776372Y-12577079D02*
X7785896Y-12558031D01*
X7785896Y-12558031D02*
X7795420Y-12548508D01*
X7795420Y-12548508D02*
X7814467Y-12538984D01*
X7966848Y-12738984D02*
X7966848Y-12605650D01*
X7966848Y-12624698D02*
X7976372Y-12615174D01*
X7976372Y-12615174D02*
X7995420Y-12605650D01*
X7995420Y-12605650D02*
X8023991Y-12605650D01*
X8023991Y-12605650D02*
X8043039Y-12615174D01*
X8043039Y-12615174D02*
X8052563Y-12634222D01*
X8052563Y-12634222D02*
X8052563Y-12738984D01*
X8052563Y-12634222D02*
X8062086Y-12615174D01*
X8062086Y-12615174D02*
X8081134Y-12605650D01*
X8081134Y-12605650D02*
X8109705Y-12605650D01*
X8109705Y-12605650D02*
X8128753Y-12615174D01*
X8128753Y-12615174D02*
X8138277Y-12634222D01*
X8138277Y-12634222D02*
X8138277Y-12738984D01*
X8233515Y-12738984D02*
X8233515Y-12605650D01*
X8233515Y-12624698D02*
X8243039Y-12615174D01*
X8243039Y-12615174D02*
X8262086Y-12605650D01*
X8262086Y-12605650D02*
X8290658Y-12605650D01*
X8290658Y-12605650D02*
X8309705Y-12615174D01*
X8309705Y-12615174D02*
X8319229Y-12634222D01*
X8319229Y-12634222D02*
X8319229Y-12738984D01*
X8319229Y-12634222D02*
X8328753Y-12615174D01*
X8328753Y-12615174D02*
X8347801Y-12605650D01*
X8347801Y-12605650D02*
X8376372Y-12605650D01*
X8376372Y-12605650D02*
X8395420Y-12615174D01*
X8395420Y-12615174D02*
X8404944Y-12634222D01*
X8404944Y-12634222D02*
X8404944Y-12738984D01*
X8795420Y-12529460D02*
X8623991Y-12786603D01*
X9052563Y-12538984D02*
X9071610Y-12538984D01*
X9071610Y-12538984D02*
X9090658Y-12548508D01*
X9090658Y-12548508D02*
X9100182Y-12558031D01*
X9100182Y-12558031D02*
X9109706Y-12577079D01*
X9109706Y-12577079D02*
X9119229Y-12615174D01*
X9119229Y-12615174D02*
X9119229Y-12662793D01*
X9119229Y-12662793D02*
X9109706Y-12700888D01*
X9109706Y-12700888D02*
X9100182Y-12719936D01*
X9100182Y-12719936D02*
X9090658Y-12729460D01*
X9090658Y-12729460D02*
X9071610Y-12738984D01*
X9071610Y-12738984D02*
X9052563Y-12738984D01*
X9052563Y-12738984D02*
X9033515Y-12729460D01*
X9033515Y-12729460D02*
X9023991Y-12719936D01*
X9023991Y-12719936D02*
X9014468Y-12700888D01*
X9014468Y-12700888D02*
X9004944Y-12662793D01*
X9004944Y-12662793D02*
X9004944Y-12615174D01*
X9004944Y-12615174D02*
X9014468Y-12577079D01*
X9014468Y-12577079D02*
X9023991Y-12558031D01*
X9023991Y-12558031D02*
X9033515Y-12548508D01*
X9033515Y-12548508D02*
X9052563Y-12538984D01*
X9204944Y-12719936D02*
X9214468Y-12729460D01*
X9214468Y-12729460D02*
X9204944Y-12738984D01*
X9204944Y-12738984D02*
X9195420Y-12729460D01*
X9195420Y-12729460D02*
X9204944Y-12719936D01*
X9204944Y-12719936D02*
X9204944Y-12738984D01*
X9338277Y-12538984D02*
X9357325Y-12538984D01*
X9357325Y-12538984D02*
X9376372Y-12548508D01*
X9376372Y-12548508D02*
X9385896Y-12558031D01*
X9385896Y-12558031D02*
X9395420Y-12577079D01*
X9395420Y-12577079D02*
X9404944Y-12615174D01*
X9404944Y-12615174D02*
X9404944Y-12662793D01*
X9404944Y-12662793D02*
X9395420Y-12700888D01*
X9395420Y-12700888D02*
X9385896Y-12719936D01*
X9385896Y-12719936D02*
X9376372Y-12729460D01*
X9376372Y-12729460D02*
X9357325Y-12738984D01*
X9357325Y-12738984D02*
X9338277Y-12738984D01*
X9338277Y-12738984D02*
X9319229Y-12729460D01*
X9319229Y-12729460D02*
X9309706Y-12719936D01*
X9309706Y-12719936D02*
X9300182Y-12700888D01*
X9300182Y-12700888D02*
X9290658Y-12662793D01*
X9290658Y-12662793D02*
X9290658Y-12615174D01*
X9290658Y-12615174D02*
X9300182Y-12577079D01*
X9300182Y-12577079D02*
X9309706Y-12558031D01*
X9309706Y-12558031D02*
X9319229Y-12548508D01*
X9319229Y-12548508D02*
X9338277Y-12538984D01*
X9595420Y-12738984D02*
X9481134Y-12738984D01*
X9538277Y-12738984D02*
X9538277Y-12538984D01*
X9538277Y-12538984D02*
X9519229Y-12567555D01*
X9519229Y-12567555D02*
X9500182Y-12586603D01*
X9500182Y-12586603D02*
X9481134Y-12596127D01*
X9776372Y-12538984D02*
X9681134Y-12538984D01*
X9681134Y-12538984D02*
X9671610Y-12634222D01*
X9671610Y-12634222D02*
X9681134Y-12624698D01*
X9681134Y-12624698D02*
X9700182Y-12615174D01*
X9700182Y-12615174D02*
X9747801Y-12615174D01*
X9747801Y-12615174D02*
X9766849Y-12624698D01*
X9766849Y-12624698D02*
X9776372Y-12634222D01*
X9776372Y-12634222D02*
X9785896Y-12653269D01*
X9785896Y-12653269D02*
X9785896Y-12700888D01*
X9785896Y-12700888D02*
X9776372Y-12719936D01*
X9776372Y-12719936D02*
X9766849Y-12729460D01*
X9766849Y-12729460D02*
X9747801Y-12738984D01*
X9747801Y-12738984D02*
X9700182Y-12738984D01*
X9700182Y-12738984D02*
X9681134Y-12729460D01*
X9681134Y-12729460D02*
X9671610Y-12719936D01*
X9852563Y-12538984D02*
X9985896Y-12538984D01*
X9985896Y-12538984D02*
X9900182Y-12738984D01*
X10052563Y-12538984D02*
X10052563Y-12577079D01*
X10128753Y-12538984D02*
X10128753Y-12577079D01*
X10423992Y-12815174D02*
X10414468Y-12805650D01*
X10414468Y-12805650D02*
X10395420Y-12777079D01*
X10395420Y-12777079D02*
X10385896Y-12758031D01*
X10385896Y-12758031D02*
X10376372Y-12729460D01*
X10376372Y-12729460D02*
X10366849Y-12681841D01*
X10366849Y-12681841D02*
X10366849Y-12643746D01*
X10366849Y-12643746D02*
X10376372Y-12596127D01*
X10376372Y-12596127D02*
X10385896Y-12567555D01*
X10385896Y-12567555D02*
X10395420Y-12548508D01*
X10395420Y-12548508D02*
X10414468Y-12519936D01*
X10414468Y-12519936D02*
X10423992Y-12510412D01*
X10604944Y-12738984D02*
X10490658Y-12738984D01*
X10547801Y-12738984D02*
X10547801Y-12538984D01*
X10547801Y-12538984D02*
X10528753Y-12567555D01*
X10528753Y-12567555D02*
X10509706Y-12586603D01*
X10509706Y-12586603D02*
X10490658Y-12596127D01*
X10719230Y-12624698D02*
X10700182Y-12615174D01*
X10700182Y-12615174D02*
X10690658Y-12605650D01*
X10690658Y-12605650D02*
X10681134Y-12586603D01*
X10681134Y-12586603D02*
X10681134Y-12577079D01*
X10681134Y-12577079D02*
X10690658Y-12558031D01*
X10690658Y-12558031D02*
X10700182Y-12548508D01*
X10700182Y-12548508D02*
X10719230Y-12538984D01*
X10719230Y-12538984D02*
X10757325Y-12538984D01*
X10757325Y-12538984D02*
X10776372Y-12548508D01*
X10776372Y-12548508D02*
X10785896Y-12558031D01*
X10785896Y-12558031D02*
X10795420Y-12577079D01*
X10795420Y-12577079D02*
X10795420Y-12586603D01*
X10795420Y-12586603D02*
X10785896Y-12605650D01*
X10785896Y-12605650D02*
X10776372Y-12615174D01*
X10776372Y-12615174D02*
X10757325Y-12624698D01*
X10757325Y-12624698D02*
X10719230Y-12624698D01*
X10719230Y-12624698D02*
X10700182Y-12634222D01*
X10700182Y-12634222D02*
X10690658Y-12643746D01*
X10690658Y-12643746D02*
X10681134Y-12662793D01*
X10681134Y-12662793D02*
X10681134Y-12700888D01*
X10681134Y-12700888D02*
X10690658Y-12719936D01*
X10690658Y-12719936D02*
X10700182Y-12729460D01*
X10700182Y-12729460D02*
X10719230Y-12738984D01*
X10719230Y-12738984D02*
X10757325Y-12738984D01*
X10757325Y-12738984D02*
X10776372Y-12729460D01*
X10776372Y-12729460D02*
X10785896Y-12719936D01*
X10785896Y-12719936D02*
X10795420Y-12700888D01*
X10795420Y-12700888D02*
X10795420Y-12662793D01*
X10795420Y-12662793D02*
X10785896Y-12643746D01*
X10785896Y-12643746D02*
X10776372Y-12634222D01*
X10776372Y-12634222D02*
X10757325Y-12624698D01*
X11033515Y-12738984D02*
X11033515Y-12538984D01*
X11119230Y-12738984D02*
X11119230Y-12634222D01*
X11119230Y-12634222D02*
X11109706Y-12615174D01*
X11109706Y-12615174D02*
X11090658Y-12605650D01*
X11090658Y-12605650D02*
X11062087Y-12605650D01*
X11062087Y-12605650D02*
X11043039Y-12615174D01*
X11043039Y-12615174D02*
X11033515Y-12624698D01*
X11243039Y-12738984D02*
X11223991Y-12729460D01*
X11223991Y-12729460D02*
X11214468Y-12719936D01*
X11214468Y-12719936D02*
X11204944Y-12700888D01*
X11204944Y-12700888D02*
X11204944Y-12643746D01*
X11204944Y-12643746D02*
X11214468Y-12624698D01*
X11214468Y-12624698D02*
X11223991Y-12615174D01*
X11223991Y-12615174D02*
X11243039Y-12605650D01*
X11243039Y-12605650D02*
X11271611Y-12605650D01*
X11271611Y-12605650D02*
X11290658Y-12615174D01*
X11290658Y-12615174D02*
X11300182Y-12624698D01*
X11300182Y-12624698D02*
X11309706Y-12643746D01*
X11309706Y-12643746D02*
X11309706Y-12700888D01*
X11309706Y-12700888D02*
X11300182Y-12719936D01*
X11300182Y-12719936D02*
X11290658Y-12729460D01*
X11290658Y-12729460D02*
X11271611Y-12738984D01*
X11271611Y-12738984D02*
X11243039Y-12738984D01*
X11423991Y-12738984D02*
X11404944Y-12729460D01*
X11404944Y-12729460D02*
X11395420Y-12710412D01*
X11395420Y-12710412D02*
X11395420Y-12538984D01*
X11576372Y-12729460D02*
X11557325Y-12738984D01*
X11557325Y-12738984D02*
X11519230Y-12738984D01*
X11519230Y-12738984D02*
X11500182Y-12729460D01*
X11500182Y-12729460D02*
X11490658Y-12710412D01*
X11490658Y-12710412D02*
X11490658Y-12634222D01*
X11490658Y-12634222D02*
X11500182Y-12615174D01*
X11500182Y-12615174D02*
X11519230Y-12605650D01*
X11519230Y-12605650D02*
X11557325Y-12605650D01*
X11557325Y-12605650D02*
X11576372Y-12615174D01*
X11576372Y-12615174D02*
X11585896Y-12634222D01*
X11585896Y-12634222D02*
X11585896Y-12653269D01*
X11585896Y-12653269D02*
X11490658Y-12672317D01*
X11662087Y-12729460D02*
X11681134Y-12738984D01*
X11681134Y-12738984D02*
X11719230Y-12738984D01*
X11719230Y-12738984D02*
X11738277Y-12729460D01*
X11738277Y-12729460D02*
X11747801Y-12710412D01*
X11747801Y-12710412D02*
X11747801Y-12700888D01*
X11747801Y-12700888D02*
X11738277Y-12681841D01*
X11738277Y-12681841D02*
X11719230Y-12672317D01*
X11719230Y-12672317D02*
X11690658Y-12672317D01*
X11690658Y-12672317D02*
X11671611Y-12662793D01*
X11671611Y-12662793D02*
X11662087Y-12643746D01*
X11662087Y-12643746D02*
X11662087Y-12634222D01*
X11662087Y-12634222D02*
X11671611Y-12615174D01*
X11671611Y-12615174D02*
X11690658Y-12605650D01*
X11690658Y-12605650D02*
X11719230Y-12605650D01*
X11719230Y-12605650D02*
X11738277Y-12615174D01*
X11814468Y-12815174D02*
X11823992Y-12805650D01*
X11823992Y-12805650D02*
X11843039Y-12777079D01*
X11843039Y-12777079D02*
X11852563Y-12758031D01*
X11852563Y-12758031D02*
X11862087Y-12729460D01*
X11862087Y-12729460D02*
X11871611Y-12681841D01*
X11871611Y-12681841D02*
X11871611Y-12643746D01*
X11871611Y-12643746D02*
X11862087Y-12596127D01*
X11862087Y-12596127D02*
X11852563Y-12567555D01*
X11852563Y-12567555D02*
X11843039Y-12548508D01*
X11843039Y-12548508D02*
X11823992Y-12519936D01*
X11823992Y-12519936D02*
X11814468Y-12510412D01*
D13*
X6848929Y-12911500D02*
G75*
G03*
X6848929Y-12911500I-50000J0D01*
G01*
D11*
X7214467Y-13002984D02*
X7100182Y-13002984D01*
X7157324Y-13002984D02*
X7157324Y-12802984D01*
X7157324Y-12802984D02*
X7138277Y-12831555D01*
X7138277Y-12831555D02*
X7119229Y-12850603D01*
X7119229Y-12850603D02*
X7100182Y-12860127D01*
X7300182Y-12983936D02*
X7309705Y-12993460D01*
X7309705Y-12993460D02*
X7300182Y-13002984D01*
X7300182Y-13002984D02*
X7290658Y-12993460D01*
X7290658Y-12993460D02*
X7300182Y-12983936D01*
X7300182Y-12983936D02*
X7300182Y-13002984D01*
X7433515Y-12802984D02*
X7452563Y-12802984D01*
X7452563Y-12802984D02*
X7471610Y-12812508D01*
X7471610Y-12812508D02*
X7481134Y-12822031D01*
X7481134Y-12822031D02*
X7490658Y-12841079D01*
X7490658Y-12841079D02*
X7500182Y-12879174D01*
X7500182Y-12879174D02*
X7500182Y-12926793D01*
X7500182Y-12926793D02*
X7490658Y-12964888D01*
X7490658Y-12964888D02*
X7481134Y-12983936D01*
X7481134Y-12983936D02*
X7471610Y-12993460D01*
X7471610Y-12993460D02*
X7452563Y-13002984D01*
X7452563Y-13002984D02*
X7433515Y-13002984D01*
X7433515Y-13002984D02*
X7414467Y-12993460D01*
X7414467Y-12993460D02*
X7404943Y-12983936D01*
X7404943Y-12983936D02*
X7395420Y-12964888D01*
X7395420Y-12964888D02*
X7385896Y-12926793D01*
X7385896Y-12926793D02*
X7385896Y-12879174D01*
X7385896Y-12879174D02*
X7395420Y-12841079D01*
X7395420Y-12841079D02*
X7404943Y-12822031D01*
X7404943Y-12822031D02*
X7414467Y-12812508D01*
X7414467Y-12812508D02*
X7433515Y-12802984D01*
X7623991Y-12802984D02*
X7643039Y-12802984D01*
X7643039Y-12802984D02*
X7662086Y-12812508D01*
X7662086Y-12812508D02*
X7671610Y-12822031D01*
X7671610Y-12822031D02*
X7681134Y-12841079D01*
X7681134Y-12841079D02*
X7690658Y-12879174D01*
X7690658Y-12879174D02*
X7690658Y-12926793D01*
X7690658Y-12926793D02*
X7681134Y-12964888D01*
X7681134Y-12964888D02*
X7671610Y-12983936D01*
X7671610Y-12983936D02*
X7662086Y-12993460D01*
X7662086Y-12993460D02*
X7643039Y-13002984D01*
X7643039Y-13002984D02*
X7623991Y-13002984D01*
X7623991Y-13002984D02*
X7604943Y-12993460D01*
X7604943Y-12993460D02*
X7595420Y-12983936D01*
X7595420Y-12983936D02*
X7585896Y-12964888D01*
X7585896Y-12964888D02*
X7576372Y-12926793D01*
X7576372Y-12926793D02*
X7576372Y-12879174D01*
X7576372Y-12879174D02*
X7585896Y-12841079D01*
X7585896Y-12841079D02*
X7595420Y-12822031D01*
X7595420Y-12822031D02*
X7604943Y-12812508D01*
X7604943Y-12812508D02*
X7623991Y-12802984D01*
X7814467Y-12802984D02*
X7833515Y-12802984D01*
X7833515Y-12802984D02*
X7852563Y-12812508D01*
X7852563Y-12812508D02*
X7862086Y-12822031D01*
X7862086Y-12822031D02*
X7871610Y-12841079D01*
X7871610Y-12841079D02*
X7881134Y-12879174D01*
X7881134Y-12879174D02*
X7881134Y-12926793D01*
X7881134Y-12926793D02*
X7871610Y-12964888D01*
X7871610Y-12964888D02*
X7862086Y-12983936D01*
X7862086Y-12983936D02*
X7852563Y-12993460D01*
X7852563Y-12993460D02*
X7833515Y-13002984D01*
X7833515Y-13002984D02*
X7814467Y-13002984D01*
X7814467Y-13002984D02*
X7795420Y-12993460D01*
X7795420Y-12993460D02*
X7785896Y-12983936D01*
X7785896Y-12983936D02*
X7776372Y-12964888D01*
X7776372Y-12964888D02*
X7766848Y-12926793D01*
X7766848Y-12926793D02*
X7766848Y-12879174D01*
X7766848Y-12879174D02*
X7776372Y-12841079D01*
X7776372Y-12841079D02*
X7785896Y-12822031D01*
X7785896Y-12822031D02*
X7795420Y-12812508D01*
X7795420Y-12812508D02*
X7814467Y-12802984D01*
X7966848Y-13002984D02*
X7966848Y-12869650D01*
X7966848Y-12888698D02*
X7976372Y-12879174D01*
X7976372Y-12879174D02*
X7995420Y-12869650D01*
X7995420Y-12869650D02*
X8023991Y-12869650D01*
X8023991Y-12869650D02*
X8043039Y-12879174D01*
X8043039Y-12879174D02*
X8052563Y-12898222D01*
X8052563Y-12898222D02*
X8052563Y-13002984D01*
X8052563Y-12898222D02*
X8062086Y-12879174D01*
X8062086Y-12879174D02*
X8081134Y-12869650D01*
X8081134Y-12869650D02*
X8109705Y-12869650D01*
X8109705Y-12869650D02*
X8128753Y-12879174D01*
X8128753Y-12879174D02*
X8138277Y-12898222D01*
X8138277Y-12898222D02*
X8138277Y-13002984D01*
X8233515Y-13002984D02*
X8233515Y-12869650D01*
X8233515Y-12888698D02*
X8243039Y-12879174D01*
X8243039Y-12879174D02*
X8262086Y-12869650D01*
X8262086Y-12869650D02*
X8290658Y-12869650D01*
X8290658Y-12869650D02*
X8309705Y-12879174D01*
X8309705Y-12879174D02*
X8319229Y-12898222D01*
X8319229Y-12898222D02*
X8319229Y-13002984D01*
X8319229Y-12898222D02*
X8328753Y-12879174D01*
X8328753Y-12879174D02*
X8347801Y-12869650D01*
X8347801Y-12869650D02*
X8376372Y-12869650D01*
X8376372Y-12869650D02*
X8395420Y-12879174D01*
X8395420Y-12879174D02*
X8404944Y-12898222D01*
X8404944Y-12898222D02*
X8404944Y-13002984D01*
X8795420Y-12793460D02*
X8623991Y-13050603D01*
X9052563Y-12802984D02*
X9071610Y-12802984D01*
X9071610Y-12802984D02*
X9090658Y-12812508D01*
X9090658Y-12812508D02*
X9100182Y-12822031D01*
X9100182Y-12822031D02*
X9109706Y-12841079D01*
X9109706Y-12841079D02*
X9119229Y-12879174D01*
X9119229Y-12879174D02*
X9119229Y-12926793D01*
X9119229Y-12926793D02*
X9109706Y-12964888D01*
X9109706Y-12964888D02*
X9100182Y-12983936D01*
X9100182Y-12983936D02*
X9090658Y-12993460D01*
X9090658Y-12993460D02*
X9071610Y-13002984D01*
X9071610Y-13002984D02*
X9052563Y-13002984D01*
X9052563Y-13002984D02*
X9033515Y-12993460D01*
X9033515Y-12993460D02*
X9023991Y-12983936D01*
X9023991Y-12983936D02*
X9014468Y-12964888D01*
X9014468Y-12964888D02*
X9004944Y-12926793D01*
X9004944Y-12926793D02*
X9004944Y-12879174D01*
X9004944Y-12879174D02*
X9014468Y-12841079D01*
X9014468Y-12841079D02*
X9023991Y-12822031D01*
X9023991Y-12822031D02*
X9033515Y-12812508D01*
X9033515Y-12812508D02*
X9052563Y-12802984D01*
X9204944Y-12983936D02*
X9214468Y-12993460D01*
X9214468Y-12993460D02*
X9204944Y-13002984D01*
X9204944Y-13002984D02*
X9195420Y-12993460D01*
X9195420Y-12993460D02*
X9204944Y-12983936D01*
X9204944Y-12983936D02*
X9204944Y-13002984D01*
X9338277Y-12802984D02*
X9357325Y-12802984D01*
X9357325Y-12802984D02*
X9376372Y-12812508D01*
X9376372Y-12812508D02*
X9385896Y-12822031D01*
X9385896Y-12822031D02*
X9395420Y-12841079D01*
X9395420Y-12841079D02*
X9404944Y-12879174D01*
X9404944Y-12879174D02*
X9404944Y-12926793D01*
X9404944Y-12926793D02*
X9395420Y-12964888D01*
X9395420Y-12964888D02*
X9385896Y-12983936D01*
X9385896Y-12983936D02*
X9376372Y-12993460D01*
X9376372Y-12993460D02*
X9357325Y-13002984D01*
X9357325Y-13002984D02*
X9338277Y-13002984D01*
X9338277Y-13002984D02*
X9319229Y-12993460D01*
X9319229Y-12993460D02*
X9309706Y-12983936D01*
X9309706Y-12983936D02*
X9300182Y-12964888D01*
X9300182Y-12964888D02*
X9290658Y-12926793D01*
X9290658Y-12926793D02*
X9290658Y-12879174D01*
X9290658Y-12879174D02*
X9300182Y-12841079D01*
X9300182Y-12841079D02*
X9309706Y-12822031D01*
X9309706Y-12822031D02*
X9319229Y-12812508D01*
X9319229Y-12812508D02*
X9338277Y-12802984D01*
X9471610Y-12802984D02*
X9595420Y-12802984D01*
X9595420Y-12802984D02*
X9528753Y-12879174D01*
X9528753Y-12879174D02*
X9557325Y-12879174D01*
X9557325Y-12879174D02*
X9576372Y-12888698D01*
X9576372Y-12888698D02*
X9585896Y-12898222D01*
X9585896Y-12898222D02*
X9595420Y-12917269D01*
X9595420Y-12917269D02*
X9595420Y-12964888D01*
X9595420Y-12964888D02*
X9585896Y-12983936D01*
X9585896Y-12983936D02*
X9576372Y-12993460D01*
X9576372Y-12993460D02*
X9557325Y-13002984D01*
X9557325Y-13002984D02*
X9500182Y-13002984D01*
X9500182Y-13002984D02*
X9481134Y-12993460D01*
X9481134Y-12993460D02*
X9471610Y-12983936D01*
X9690658Y-13002984D02*
X9728753Y-13002984D01*
X9728753Y-13002984D02*
X9747801Y-12993460D01*
X9747801Y-12993460D02*
X9757325Y-12983936D01*
X9757325Y-12983936D02*
X9776372Y-12955365D01*
X9776372Y-12955365D02*
X9785896Y-12917269D01*
X9785896Y-12917269D02*
X9785896Y-12841079D01*
X9785896Y-12841079D02*
X9776372Y-12822031D01*
X9776372Y-12822031D02*
X9766849Y-12812508D01*
X9766849Y-12812508D02*
X9747801Y-12802984D01*
X9747801Y-12802984D02*
X9709706Y-12802984D01*
X9709706Y-12802984D02*
X9690658Y-12812508D01*
X9690658Y-12812508D02*
X9681134Y-12822031D01*
X9681134Y-12822031D02*
X9671610Y-12841079D01*
X9671610Y-12841079D02*
X9671610Y-12888698D01*
X9671610Y-12888698D02*
X9681134Y-12907746D01*
X9681134Y-12907746D02*
X9690658Y-12917269D01*
X9690658Y-12917269D02*
X9709706Y-12926793D01*
X9709706Y-12926793D02*
X9747801Y-12926793D01*
X9747801Y-12926793D02*
X9766849Y-12917269D01*
X9766849Y-12917269D02*
X9776372Y-12907746D01*
X9776372Y-12907746D02*
X9785896Y-12888698D01*
X9957325Y-12869650D02*
X9957325Y-13002984D01*
X9909706Y-12793460D02*
X9862087Y-12936317D01*
X9862087Y-12936317D02*
X9985896Y-12936317D01*
X10052563Y-12802984D02*
X10052563Y-12841079D01*
X10128753Y-12802984D02*
X10128753Y-12841079D01*
X10423992Y-13079174D02*
X10414468Y-13069650D01*
X10414468Y-13069650D02*
X10395420Y-13041079D01*
X10395420Y-13041079D02*
X10385896Y-13022031D01*
X10385896Y-13022031D02*
X10376372Y-12993460D01*
X10376372Y-12993460D02*
X10366849Y-12945841D01*
X10366849Y-12945841D02*
X10366849Y-12907746D01*
X10366849Y-12907746D02*
X10376372Y-12860127D01*
X10376372Y-12860127D02*
X10385896Y-12831555D01*
X10385896Y-12831555D02*
X10395420Y-12812508D01*
X10395420Y-12812508D02*
X10414468Y-12783936D01*
X10414468Y-12783936D02*
X10423992Y-12774412D01*
X10604944Y-13002984D02*
X10490658Y-13002984D01*
X10547801Y-13002984D02*
X10547801Y-12802984D01*
X10547801Y-12802984D02*
X10528753Y-12831555D01*
X10528753Y-12831555D02*
X10509706Y-12850603D01*
X10509706Y-12850603D02*
X10490658Y-12860127D01*
X10681134Y-12822031D02*
X10690658Y-12812508D01*
X10690658Y-12812508D02*
X10709706Y-12802984D01*
X10709706Y-12802984D02*
X10757325Y-12802984D01*
X10757325Y-12802984D02*
X10776372Y-12812508D01*
X10776372Y-12812508D02*
X10785896Y-12822031D01*
X10785896Y-12822031D02*
X10795420Y-12841079D01*
X10795420Y-12841079D02*
X10795420Y-12860127D01*
X10795420Y-12860127D02*
X10785896Y-12888698D01*
X10785896Y-12888698D02*
X10671611Y-13002984D01*
X10671611Y-13002984D02*
X10795420Y-13002984D01*
X11033515Y-13002984D02*
X11033515Y-12802984D01*
X11119230Y-13002984D02*
X11119230Y-12898222D01*
X11119230Y-12898222D02*
X11109706Y-12879174D01*
X11109706Y-12879174D02*
X11090658Y-12869650D01*
X11090658Y-12869650D02*
X11062087Y-12869650D01*
X11062087Y-12869650D02*
X11043039Y-12879174D01*
X11043039Y-12879174D02*
X11033515Y-12888698D01*
X11243039Y-13002984D02*
X11223991Y-12993460D01*
X11223991Y-12993460D02*
X11214468Y-12983936D01*
X11214468Y-12983936D02*
X11204944Y-12964888D01*
X11204944Y-12964888D02*
X11204944Y-12907746D01*
X11204944Y-12907746D02*
X11214468Y-12888698D01*
X11214468Y-12888698D02*
X11223991Y-12879174D01*
X11223991Y-12879174D02*
X11243039Y-12869650D01*
X11243039Y-12869650D02*
X11271611Y-12869650D01*
X11271611Y-12869650D02*
X11290658Y-12879174D01*
X11290658Y-12879174D02*
X11300182Y-12888698D01*
X11300182Y-12888698D02*
X11309706Y-12907746D01*
X11309706Y-12907746D02*
X11309706Y-12964888D01*
X11309706Y-12964888D02*
X11300182Y-12983936D01*
X11300182Y-12983936D02*
X11290658Y-12993460D01*
X11290658Y-12993460D02*
X11271611Y-13002984D01*
X11271611Y-13002984D02*
X11243039Y-13002984D01*
X11423991Y-13002984D02*
X11404944Y-12993460D01*
X11404944Y-12993460D02*
X11395420Y-12974412D01*
X11395420Y-12974412D02*
X11395420Y-12802984D01*
X11576372Y-12993460D02*
X11557325Y-13002984D01*
X11557325Y-13002984D02*
X11519230Y-13002984D01*
X11519230Y-13002984D02*
X11500182Y-12993460D01*
X11500182Y-12993460D02*
X11490658Y-12974412D01*
X11490658Y-12974412D02*
X11490658Y-12898222D01*
X11490658Y-12898222D02*
X11500182Y-12879174D01*
X11500182Y-12879174D02*
X11519230Y-12869650D01*
X11519230Y-12869650D02*
X11557325Y-12869650D01*
X11557325Y-12869650D02*
X11576372Y-12879174D01*
X11576372Y-12879174D02*
X11585896Y-12898222D01*
X11585896Y-12898222D02*
X11585896Y-12917269D01*
X11585896Y-12917269D02*
X11490658Y-12936317D01*
X11662087Y-12993460D02*
X11681134Y-13002984D01*
X11681134Y-13002984D02*
X11719230Y-13002984D01*
X11719230Y-13002984D02*
X11738277Y-12993460D01*
X11738277Y-12993460D02*
X11747801Y-12974412D01*
X11747801Y-12974412D02*
X11747801Y-12964888D01*
X11747801Y-12964888D02*
X11738277Y-12945841D01*
X11738277Y-12945841D02*
X11719230Y-12936317D01*
X11719230Y-12936317D02*
X11690658Y-12936317D01*
X11690658Y-12936317D02*
X11671611Y-12926793D01*
X11671611Y-12926793D02*
X11662087Y-12907746D01*
X11662087Y-12907746D02*
X11662087Y-12898222D01*
X11662087Y-12898222D02*
X11671611Y-12879174D01*
X11671611Y-12879174D02*
X11690658Y-12869650D01*
X11690658Y-12869650D02*
X11719230Y-12869650D01*
X11719230Y-12869650D02*
X11738277Y-12879174D01*
X11814468Y-13079174D02*
X11823992Y-13069650D01*
X11823992Y-13069650D02*
X11843039Y-13041079D01*
X11843039Y-13041079D02*
X11852563Y-13022031D01*
X11852563Y-13022031D02*
X11862087Y-12993460D01*
X11862087Y-12993460D02*
X11871611Y-12945841D01*
X11871611Y-12945841D02*
X11871611Y-12907746D01*
X11871611Y-12907746D02*
X11862087Y-12860127D01*
X11862087Y-12860127D02*
X11852563Y-12831555D01*
X11852563Y-12831555D02*
X11843039Y-12812508D01*
X11843039Y-12812508D02*
X11823992Y-12783936D01*
X11823992Y-12783936D02*
X11814468Y-12774412D01*
M02*
