%TF.GenerationSoftware,KiCad,Pcbnew,7.0.7*%
%TF.CreationDate,2024-03-03T16:13:55-05:00*%
%TF.ProjectId,Gamecube_SP1,47616d65-6375-4626-955f-5350312e6b69,rev?*%
%TF.SameCoordinates,Original*%
%TF.FileFunction,Drillmap*%
%TF.FilePolarity,Positive*%
%FSLAX45Y45*%
G04 Gerber Fmt 4.5, Leading zero omitted, Abs format (unit mm)*
G04 Created by KiCad (PCBNEW 7.0.7) date 2024-03-03 16:13:55*
%MOMM*%
%LPD*%
G01*
G04 APERTURE LIST*
%ADD10C,0.150000*%
%ADD11C,0.200000*%
G04 APERTURE END LIST*
D10*
X10246429Y-11999999D02*
G75*
G03*
X10306429Y-11940000I1J59999D01*
G01*
X8806429Y-12000000D02*
X6856429Y-12000000D01*
X9066429Y-12000000D02*
X10246429Y-12000000D01*
X9006430Y-11940000D02*
G75*
G03*
X9066429Y-12000000I60000J0D01*
G01*
X10506429Y-11300000D02*
X10506429Y-12000000D01*
X11056429Y-10100000D02*
X11056429Y-12000000D01*
X9006429Y-11940000D02*
X9006429Y-11300000D01*
X10306429Y-11300000D02*
X10506429Y-11300000D01*
X6856429Y-12000000D02*
X6856429Y-10100000D01*
X10506429Y-12000000D02*
X11056429Y-12000000D01*
X6856429Y-10100000D02*
X11056429Y-10100000D01*
X10306429Y-11940000D02*
X10306429Y-11300000D01*
X8806429Y-11300000D02*
X9006429Y-11300000D01*
X8806429Y-11300000D02*
X8806429Y-12000000D01*
D11*
X7109705Y-12318984D02*
X7109705Y-12118984D01*
X7109705Y-12118984D02*
X7157324Y-12118984D01*
X7157324Y-12118984D02*
X7185896Y-12128508D01*
X7185896Y-12128508D02*
X7204943Y-12147555D01*
X7204943Y-12147555D02*
X7214467Y-12166603D01*
X7214467Y-12166603D02*
X7223991Y-12204698D01*
X7223991Y-12204698D02*
X7223991Y-12233269D01*
X7223991Y-12233269D02*
X7214467Y-12271365D01*
X7214467Y-12271365D02*
X7204943Y-12290412D01*
X7204943Y-12290412D02*
X7185896Y-12309460D01*
X7185896Y-12309460D02*
X7157324Y-12318984D01*
X7157324Y-12318984D02*
X7109705Y-12318984D01*
X7309705Y-12318984D02*
X7309705Y-12185650D01*
X7309705Y-12223746D02*
X7319229Y-12204698D01*
X7319229Y-12204698D02*
X7328753Y-12195174D01*
X7328753Y-12195174D02*
X7347801Y-12185650D01*
X7347801Y-12185650D02*
X7366848Y-12185650D01*
X7433515Y-12318984D02*
X7433515Y-12185650D01*
X7433515Y-12118984D02*
X7423991Y-12128508D01*
X7423991Y-12128508D02*
X7433515Y-12138031D01*
X7433515Y-12138031D02*
X7443039Y-12128508D01*
X7443039Y-12128508D02*
X7433515Y-12118984D01*
X7433515Y-12118984D02*
X7433515Y-12138031D01*
X7557324Y-12318984D02*
X7538277Y-12309460D01*
X7538277Y-12309460D02*
X7528753Y-12290412D01*
X7528753Y-12290412D02*
X7528753Y-12118984D01*
X7662086Y-12318984D02*
X7643039Y-12309460D01*
X7643039Y-12309460D02*
X7633515Y-12290412D01*
X7633515Y-12290412D02*
X7633515Y-12118984D01*
X7890658Y-12318984D02*
X7890658Y-12118984D01*
X7890658Y-12118984D02*
X7957324Y-12261841D01*
X7957324Y-12261841D02*
X8023991Y-12118984D01*
X8023991Y-12118984D02*
X8023991Y-12318984D01*
X8204943Y-12318984D02*
X8204943Y-12214222D01*
X8204943Y-12214222D02*
X8195420Y-12195174D01*
X8195420Y-12195174D02*
X8176372Y-12185650D01*
X8176372Y-12185650D02*
X8138277Y-12185650D01*
X8138277Y-12185650D02*
X8119229Y-12195174D01*
X8204943Y-12309460D02*
X8185896Y-12318984D01*
X8185896Y-12318984D02*
X8138277Y-12318984D01*
X8138277Y-12318984D02*
X8119229Y-12309460D01*
X8119229Y-12309460D02*
X8109705Y-12290412D01*
X8109705Y-12290412D02*
X8109705Y-12271365D01*
X8109705Y-12271365D02*
X8119229Y-12252317D01*
X8119229Y-12252317D02*
X8138277Y-12242793D01*
X8138277Y-12242793D02*
X8185896Y-12242793D01*
X8185896Y-12242793D02*
X8204943Y-12233269D01*
X8300182Y-12185650D02*
X8300182Y-12385650D01*
X8300182Y-12195174D02*
X8319229Y-12185650D01*
X8319229Y-12185650D02*
X8357324Y-12185650D01*
X8357324Y-12185650D02*
X8376372Y-12195174D01*
X8376372Y-12195174D02*
X8385896Y-12204698D01*
X8385896Y-12204698D02*
X8395420Y-12223746D01*
X8395420Y-12223746D02*
X8395420Y-12280888D01*
X8395420Y-12280888D02*
X8385896Y-12299936D01*
X8385896Y-12299936D02*
X8376372Y-12309460D01*
X8376372Y-12309460D02*
X8357324Y-12318984D01*
X8357324Y-12318984D02*
X8319229Y-12318984D01*
X8319229Y-12318984D02*
X8300182Y-12309460D01*
X8481134Y-12299936D02*
X8490658Y-12309460D01*
X8490658Y-12309460D02*
X8481134Y-12318984D01*
X8481134Y-12318984D02*
X8471610Y-12309460D01*
X8471610Y-12309460D02*
X8481134Y-12299936D01*
X8481134Y-12299936D02*
X8481134Y-12318984D01*
X8481134Y-12195174D02*
X8490658Y-12204698D01*
X8490658Y-12204698D02*
X8481134Y-12214222D01*
X8481134Y-12214222D02*
X8471610Y-12204698D01*
X8471610Y-12204698D02*
X8481134Y-12195174D01*
X8481134Y-12195174D02*
X8481134Y-12214222D01*
M02*
