G04 #@! TF.GenerationSoftware,KiCad,Pcbnew,7.0.7*
G04 #@! TF.CreationDate,2024-03-03T16:13:36-05:00*
G04 #@! TF.ProjectId,Gamecube_SP1,47616d65-6375-4626-955f-5350312e6b69,rev?*
G04 #@! TF.SameCoordinates,Original*
G04 #@! TF.FileFunction,Legend,Bot*
G04 #@! TF.FilePolarity,Positive*
%FSLAX46Y46*%
G04 Gerber Fmt 4.6, Leading zero omitted, Abs format (unit mm)*
G04 Created by KiCad (PCBNEW 7.0.7) date 2024-03-03 16:13:36*
%MOMM*%
%LPD*%
G01*
G04 APERTURE LIST*
%ADD10C,0.300000*%
%ADD11C,0.150000*%
%ADD12C,0.100000*%
%ADD13R,1.700000X1.700000*%
%ADD14O,1.700000X1.700000*%
%ADD15R,1.500000X7.000000*%
G04 APERTURE END LIST*
D10*
X108107141Y-101378328D02*
X107249999Y-101378328D01*
X107678570Y-102878328D02*
X107678570Y-101378328D01*
X106749999Y-102878328D02*
X106749999Y-101378328D01*
X106749999Y-102092614D02*
X105892856Y-102092614D01*
X105892856Y-102878328D02*
X105892856Y-101378328D01*
X105178570Y-102878328D02*
X105178570Y-101378328D01*
X104535712Y-102806900D02*
X104321427Y-102878328D01*
X104321427Y-102878328D02*
X103964284Y-102878328D01*
X103964284Y-102878328D02*
X103821427Y-102806900D01*
X103821427Y-102806900D02*
X103749998Y-102735471D01*
X103749998Y-102735471D02*
X103678569Y-102592614D01*
X103678569Y-102592614D02*
X103678569Y-102449757D01*
X103678569Y-102449757D02*
X103749998Y-102306900D01*
X103749998Y-102306900D02*
X103821427Y-102235471D01*
X103821427Y-102235471D02*
X103964284Y-102164042D01*
X103964284Y-102164042D02*
X104249998Y-102092614D01*
X104249998Y-102092614D02*
X104392855Y-102021185D01*
X104392855Y-102021185D02*
X104464284Y-101949757D01*
X104464284Y-101949757D02*
X104535712Y-101806900D01*
X104535712Y-101806900D02*
X104535712Y-101664042D01*
X104535712Y-101664042D02*
X104464284Y-101521185D01*
X104464284Y-101521185D02*
X104392855Y-101449757D01*
X104392855Y-101449757D02*
X104249998Y-101378328D01*
X104249998Y-101378328D02*
X103892855Y-101378328D01*
X103892855Y-101378328D02*
X103678569Y-101449757D01*
X101964284Y-102806900D02*
X101749999Y-102878328D01*
X101749999Y-102878328D02*
X101392856Y-102878328D01*
X101392856Y-102878328D02*
X101249999Y-102806900D01*
X101249999Y-102806900D02*
X101178570Y-102735471D01*
X101178570Y-102735471D02*
X101107141Y-102592614D01*
X101107141Y-102592614D02*
X101107141Y-102449757D01*
X101107141Y-102449757D02*
X101178570Y-102306900D01*
X101178570Y-102306900D02*
X101249999Y-102235471D01*
X101249999Y-102235471D02*
X101392856Y-102164042D01*
X101392856Y-102164042D02*
X101678570Y-102092614D01*
X101678570Y-102092614D02*
X101821427Y-102021185D01*
X101821427Y-102021185D02*
X101892856Y-101949757D01*
X101892856Y-101949757D02*
X101964284Y-101806900D01*
X101964284Y-101806900D02*
X101964284Y-101664042D01*
X101964284Y-101664042D02*
X101892856Y-101521185D01*
X101892856Y-101521185D02*
X101821427Y-101449757D01*
X101821427Y-101449757D02*
X101678570Y-101378328D01*
X101678570Y-101378328D02*
X101321427Y-101378328D01*
X101321427Y-101378328D02*
X101107141Y-101449757D01*
X100464285Y-102878328D02*
X100464285Y-101378328D01*
X99749999Y-102878328D02*
X99749999Y-101378328D01*
X99749999Y-101378328D02*
X99392856Y-101378328D01*
X99392856Y-101378328D02*
X99178570Y-101449757D01*
X99178570Y-101449757D02*
X99035713Y-101592614D01*
X99035713Y-101592614D02*
X98964284Y-101735471D01*
X98964284Y-101735471D02*
X98892856Y-102021185D01*
X98892856Y-102021185D02*
X98892856Y-102235471D01*
X98892856Y-102235471D02*
X98964284Y-102521185D01*
X98964284Y-102521185D02*
X99035713Y-102664042D01*
X99035713Y-102664042D02*
X99178570Y-102806900D01*
X99178570Y-102806900D02*
X99392856Y-102878328D01*
X99392856Y-102878328D02*
X99749999Y-102878328D01*
X98249999Y-102092614D02*
X97749999Y-102092614D01*
X97535713Y-102878328D02*
X98249999Y-102878328D01*
X98249999Y-102878328D02*
X98249999Y-101378328D01*
X98249999Y-101378328D02*
X97535713Y-101378328D01*
X95249999Y-102092614D02*
X95749999Y-102092614D01*
X95749999Y-102878328D02*
X95749999Y-101378328D01*
X95749999Y-101378328D02*
X95035713Y-101378328D01*
X94535713Y-102449757D02*
X93821428Y-102449757D01*
X94678570Y-102878328D02*
X94178570Y-101378328D01*
X94178570Y-101378328D02*
X93678570Y-102878328D01*
X92321428Y-102735471D02*
X92392856Y-102806900D01*
X92392856Y-102806900D02*
X92607142Y-102878328D01*
X92607142Y-102878328D02*
X92749999Y-102878328D01*
X92749999Y-102878328D02*
X92964285Y-102806900D01*
X92964285Y-102806900D02*
X93107142Y-102664042D01*
X93107142Y-102664042D02*
X93178571Y-102521185D01*
X93178571Y-102521185D02*
X93249999Y-102235471D01*
X93249999Y-102235471D02*
X93249999Y-102021185D01*
X93249999Y-102021185D02*
X93178571Y-101735471D01*
X93178571Y-101735471D02*
X93107142Y-101592614D01*
X93107142Y-101592614D02*
X92964285Y-101449757D01*
X92964285Y-101449757D02*
X92749999Y-101378328D01*
X92749999Y-101378328D02*
X92607142Y-101378328D01*
X92607142Y-101378328D02*
X92392856Y-101449757D01*
X92392856Y-101449757D02*
X92321428Y-101521185D01*
X91678571Y-102092614D02*
X91178571Y-102092614D01*
X90964285Y-102878328D02*
X91678571Y-102878328D01*
X91678571Y-102878328D02*
X91678571Y-101378328D01*
X91678571Y-101378328D02*
X90964285Y-101378328D01*
X90392856Y-102806900D02*
X90178571Y-102878328D01*
X90178571Y-102878328D02*
X89821428Y-102878328D01*
X89821428Y-102878328D02*
X89678571Y-102806900D01*
X89678571Y-102806900D02*
X89607142Y-102735471D01*
X89607142Y-102735471D02*
X89535713Y-102592614D01*
X89535713Y-102592614D02*
X89535713Y-102449757D01*
X89535713Y-102449757D02*
X89607142Y-102306900D01*
X89607142Y-102306900D02*
X89678571Y-102235471D01*
X89678571Y-102235471D02*
X89821428Y-102164042D01*
X89821428Y-102164042D02*
X90107142Y-102092614D01*
X90107142Y-102092614D02*
X90249999Y-102021185D01*
X90249999Y-102021185D02*
X90321428Y-101949757D01*
X90321428Y-101949757D02*
X90392856Y-101806900D01*
X90392856Y-101806900D02*
X90392856Y-101664042D01*
X90392856Y-101664042D02*
X90321428Y-101521185D01*
X90321428Y-101521185D02*
X90249999Y-101449757D01*
X90249999Y-101449757D02*
X90107142Y-101378328D01*
X90107142Y-101378328D02*
X89749999Y-101378328D01*
X89749999Y-101378328D02*
X89535713Y-101449757D01*
X86964285Y-101449757D02*
X87107143Y-101378328D01*
X87107143Y-101378328D02*
X87321428Y-101378328D01*
X87321428Y-101378328D02*
X87535714Y-101449757D01*
X87535714Y-101449757D02*
X87678571Y-101592614D01*
X87678571Y-101592614D02*
X87750000Y-101735471D01*
X87750000Y-101735471D02*
X87821428Y-102021185D01*
X87821428Y-102021185D02*
X87821428Y-102235471D01*
X87821428Y-102235471D02*
X87750000Y-102521185D01*
X87750000Y-102521185D02*
X87678571Y-102664042D01*
X87678571Y-102664042D02*
X87535714Y-102806900D01*
X87535714Y-102806900D02*
X87321428Y-102878328D01*
X87321428Y-102878328D02*
X87178571Y-102878328D01*
X87178571Y-102878328D02*
X86964285Y-102806900D01*
X86964285Y-102806900D02*
X86892857Y-102735471D01*
X86892857Y-102735471D02*
X86892857Y-102235471D01*
X86892857Y-102235471D02*
X87178571Y-102235471D01*
X86250000Y-102878328D02*
X86250000Y-101378328D01*
X86250000Y-101378328D02*
X85678571Y-101378328D01*
X85678571Y-101378328D02*
X85535714Y-101449757D01*
X85535714Y-101449757D02*
X85464285Y-101521185D01*
X85464285Y-101521185D02*
X85392857Y-101664042D01*
X85392857Y-101664042D02*
X85392857Y-101878328D01*
X85392857Y-101878328D02*
X85464285Y-102021185D01*
X85464285Y-102021185D02*
X85535714Y-102092614D01*
X85535714Y-102092614D02*
X85678571Y-102164042D01*
X85678571Y-102164042D02*
X86250000Y-102164042D01*
X84250000Y-102092614D02*
X84035714Y-102164042D01*
X84035714Y-102164042D02*
X83964285Y-102235471D01*
X83964285Y-102235471D02*
X83892857Y-102378328D01*
X83892857Y-102378328D02*
X83892857Y-102592614D01*
X83892857Y-102592614D02*
X83964285Y-102735471D01*
X83964285Y-102735471D02*
X84035714Y-102806900D01*
X84035714Y-102806900D02*
X84178571Y-102878328D01*
X84178571Y-102878328D02*
X84750000Y-102878328D01*
X84750000Y-102878328D02*
X84750000Y-101378328D01*
X84750000Y-101378328D02*
X84250000Y-101378328D01*
X84250000Y-101378328D02*
X84107143Y-101449757D01*
X84107143Y-101449757D02*
X84035714Y-101521185D01*
X84035714Y-101521185D02*
X83964285Y-101664042D01*
X83964285Y-101664042D02*
X83964285Y-101806900D01*
X83964285Y-101806900D02*
X84035714Y-101949757D01*
X84035714Y-101949757D02*
X84107143Y-102021185D01*
X84107143Y-102021185D02*
X84250000Y-102092614D01*
X84250000Y-102092614D02*
X84750000Y-102092614D01*
X82107143Y-102878328D02*
X82107143Y-101378328D01*
X82107143Y-101378328D02*
X81535714Y-101378328D01*
X81535714Y-101378328D02*
X81392857Y-101449757D01*
X81392857Y-101449757D02*
X81321428Y-101521185D01*
X81321428Y-101521185D02*
X81250000Y-101664042D01*
X81250000Y-101664042D02*
X81250000Y-101878328D01*
X81250000Y-101878328D02*
X81321428Y-102021185D01*
X81321428Y-102021185D02*
X81392857Y-102092614D01*
X81392857Y-102092614D02*
X81535714Y-102164042D01*
X81535714Y-102164042D02*
X82107143Y-102164042D01*
X80321428Y-101378328D02*
X80035714Y-101378328D01*
X80035714Y-101378328D02*
X79892857Y-101449757D01*
X79892857Y-101449757D02*
X79750000Y-101592614D01*
X79750000Y-101592614D02*
X79678571Y-101878328D01*
X79678571Y-101878328D02*
X79678571Y-102378328D01*
X79678571Y-102378328D02*
X79750000Y-102664042D01*
X79750000Y-102664042D02*
X79892857Y-102806900D01*
X79892857Y-102806900D02*
X80035714Y-102878328D01*
X80035714Y-102878328D02*
X80321428Y-102878328D01*
X80321428Y-102878328D02*
X80464286Y-102806900D01*
X80464286Y-102806900D02*
X80607143Y-102664042D01*
X80607143Y-102664042D02*
X80678571Y-102378328D01*
X80678571Y-102378328D02*
X80678571Y-101878328D01*
X80678571Y-101878328D02*
X80607143Y-101592614D01*
X80607143Y-101592614D02*
X80464286Y-101449757D01*
X80464286Y-101449757D02*
X80321428Y-101378328D01*
X78178571Y-102878328D02*
X78678571Y-102164042D01*
X79035714Y-102878328D02*
X79035714Y-101378328D01*
X79035714Y-101378328D02*
X78464285Y-101378328D01*
X78464285Y-101378328D02*
X78321428Y-101449757D01*
X78321428Y-101449757D02*
X78249999Y-101521185D01*
X78249999Y-101521185D02*
X78178571Y-101664042D01*
X78178571Y-101664042D02*
X78178571Y-101878328D01*
X78178571Y-101878328D02*
X78249999Y-102021185D01*
X78249999Y-102021185D02*
X78321428Y-102092614D01*
X78321428Y-102092614D02*
X78464285Y-102164042D01*
X78464285Y-102164042D02*
X79035714Y-102164042D01*
X77749999Y-101378328D02*
X76892857Y-101378328D01*
X77321428Y-102878328D02*
X77321428Y-101378328D01*
D11*
X88553831Y-106552979D02*
X88410974Y-106600598D01*
X88410974Y-106600598D02*
X88172879Y-106600598D01*
X88172879Y-106600598D02*
X88077641Y-106552979D01*
X88077641Y-106552979D02*
X88030022Y-106505359D01*
X88030022Y-106505359D02*
X87982403Y-106410121D01*
X87982403Y-106410121D02*
X87982403Y-106314883D01*
X87982403Y-106314883D02*
X88030022Y-106219645D01*
X88030022Y-106219645D02*
X88077641Y-106172026D01*
X88077641Y-106172026D02*
X88172879Y-106124407D01*
X88172879Y-106124407D02*
X88363355Y-106076788D01*
X88363355Y-106076788D02*
X88458593Y-106029169D01*
X88458593Y-106029169D02*
X88506212Y-105981550D01*
X88506212Y-105981550D02*
X88553831Y-105886312D01*
X88553831Y-105886312D02*
X88553831Y-105791074D01*
X88553831Y-105791074D02*
X88506212Y-105695836D01*
X88506212Y-105695836D02*
X88458593Y-105648217D01*
X88458593Y-105648217D02*
X88363355Y-105600598D01*
X88363355Y-105600598D02*
X88125260Y-105600598D01*
X88125260Y-105600598D02*
X87982403Y-105648217D01*
X87553831Y-106600598D02*
X87553831Y-105600598D01*
X87553831Y-105600598D02*
X87172879Y-105600598D01*
X87172879Y-105600598D02*
X87077641Y-105648217D01*
X87077641Y-105648217D02*
X87030022Y-105695836D01*
X87030022Y-105695836D02*
X86982403Y-105791074D01*
X86982403Y-105791074D02*
X86982403Y-105933931D01*
X86982403Y-105933931D02*
X87030022Y-106029169D01*
X87030022Y-106029169D02*
X87077641Y-106076788D01*
X87077641Y-106076788D02*
X87172879Y-106124407D01*
X87172879Y-106124407D02*
X87553831Y-106124407D01*
X86030022Y-106600598D02*
X86601450Y-106600598D01*
X86315736Y-106600598D02*
X86315736Y-105600598D01*
X86315736Y-105600598D02*
X86410974Y-105743455D01*
X86410974Y-105743455D02*
X86506212Y-105838693D01*
X86506212Y-105838693D02*
X86601450Y-105886312D01*
X84506212Y-106076788D02*
X84363355Y-106124407D01*
X84363355Y-106124407D02*
X84315736Y-106172026D01*
X84315736Y-106172026D02*
X84268117Y-106267264D01*
X84268117Y-106267264D02*
X84268117Y-106410121D01*
X84268117Y-106410121D02*
X84315736Y-106505359D01*
X84315736Y-106505359D02*
X84363355Y-106552979D01*
X84363355Y-106552979D02*
X84458593Y-106600598D01*
X84458593Y-106600598D02*
X84839545Y-106600598D01*
X84839545Y-106600598D02*
X84839545Y-105600598D01*
X84839545Y-105600598D02*
X84506212Y-105600598D01*
X84506212Y-105600598D02*
X84410974Y-105648217D01*
X84410974Y-105648217D02*
X84363355Y-105695836D01*
X84363355Y-105695836D02*
X84315736Y-105791074D01*
X84315736Y-105791074D02*
X84315736Y-105886312D01*
X84315736Y-105886312D02*
X84363355Y-105981550D01*
X84363355Y-105981550D02*
X84410974Y-106029169D01*
X84410974Y-106029169D02*
X84506212Y-106076788D01*
X84506212Y-106076788D02*
X84839545Y-106076788D01*
X83268117Y-106600598D02*
X83601450Y-106124407D01*
X83839545Y-106600598D02*
X83839545Y-105600598D01*
X83839545Y-105600598D02*
X83458593Y-105600598D01*
X83458593Y-105600598D02*
X83363355Y-105648217D01*
X83363355Y-105648217D02*
X83315736Y-105695836D01*
X83315736Y-105695836D02*
X83268117Y-105791074D01*
X83268117Y-105791074D02*
X83268117Y-105933931D01*
X83268117Y-105933931D02*
X83315736Y-106029169D01*
X83315736Y-106029169D02*
X83363355Y-106076788D01*
X83363355Y-106076788D02*
X83458593Y-106124407D01*
X83458593Y-106124407D02*
X83839545Y-106124407D01*
X82839545Y-106076788D02*
X82506212Y-106076788D01*
X82363355Y-106600598D02*
X82839545Y-106600598D01*
X82839545Y-106600598D02*
X82839545Y-105600598D01*
X82839545Y-105600598D02*
X82363355Y-105600598D01*
X81982402Y-106314883D02*
X81506212Y-106314883D01*
X82077640Y-106600598D02*
X81744307Y-105600598D01*
X81744307Y-105600598D02*
X81410974Y-106600598D01*
X81077640Y-106600598D02*
X81077640Y-105600598D01*
X80506212Y-106600598D02*
X80934783Y-106029169D01*
X80506212Y-105600598D02*
X81077640Y-106172026D01*
X79887164Y-105600598D02*
X79696688Y-105600598D01*
X79696688Y-105600598D02*
X79601450Y-105648217D01*
X79601450Y-105648217D02*
X79506212Y-105743455D01*
X79506212Y-105743455D02*
X79458593Y-105933931D01*
X79458593Y-105933931D02*
X79458593Y-106267264D01*
X79458593Y-106267264D02*
X79506212Y-106457740D01*
X79506212Y-106457740D02*
X79601450Y-106552979D01*
X79601450Y-106552979D02*
X79696688Y-106600598D01*
X79696688Y-106600598D02*
X79887164Y-106600598D01*
X79887164Y-106600598D02*
X79982402Y-106552979D01*
X79982402Y-106552979D02*
X80077640Y-106457740D01*
X80077640Y-106457740D02*
X80125259Y-106267264D01*
X80125259Y-106267264D02*
X80125259Y-105933931D01*
X80125259Y-105933931D02*
X80077640Y-105743455D01*
X80077640Y-105743455D02*
X79982402Y-105648217D01*
X79982402Y-105648217D02*
X79887164Y-105600598D01*
X79030021Y-105600598D02*
X79030021Y-106410121D01*
X79030021Y-106410121D02*
X78982402Y-106505359D01*
X78982402Y-106505359D02*
X78934783Y-106552979D01*
X78934783Y-106552979D02*
X78839545Y-106600598D01*
X78839545Y-106600598D02*
X78649069Y-106600598D01*
X78649069Y-106600598D02*
X78553831Y-106552979D01*
X78553831Y-106552979D02*
X78506212Y-106505359D01*
X78506212Y-106505359D02*
X78458593Y-106410121D01*
X78458593Y-106410121D02*
X78458593Y-105600598D01*
X78125259Y-105600598D02*
X77553831Y-105600598D01*
X77839545Y-106600598D02*
X77839545Y-105600598D01*
X76125259Y-106076788D02*
X75982402Y-106124407D01*
X75982402Y-106124407D02*
X75934783Y-106172026D01*
X75934783Y-106172026D02*
X75887164Y-106267264D01*
X75887164Y-106267264D02*
X75887164Y-106410121D01*
X75887164Y-106410121D02*
X75934783Y-106505359D01*
X75934783Y-106505359D02*
X75982402Y-106552979D01*
X75982402Y-106552979D02*
X76077640Y-106600598D01*
X76077640Y-106600598D02*
X76458592Y-106600598D01*
X76458592Y-106600598D02*
X76458592Y-105600598D01*
X76458592Y-105600598D02*
X76125259Y-105600598D01*
X76125259Y-105600598D02*
X76030021Y-105648217D01*
X76030021Y-105648217D02*
X75982402Y-105695836D01*
X75982402Y-105695836D02*
X75934783Y-105791074D01*
X75934783Y-105791074D02*
X75934783Y-105886312D01*
X75934783Y-105886312D02*
X75982402Y-105981550D01*
X75982402Y-105981550D02*
X76030021Y-106029169D01*
X76030021Y-106029169D02*
X76125259Y-106076788D01*
X76125259Y-106076788D02*
X76458592Y-106076788D01*
X75268116Y-105600598D02*
X75077640Y-105600598D01*
X75077640Y-105600598D02*
X74982402Y-105648217D01*
X74982402Y-105648217D02*
X74887164Y-105743455D01*
X74887164Y-105743455D02*
X74839545Y-105933931D01*
X74839545Y-105933931D02*
X74839545Y-106267264D01*
X74839545Y-106267264D02*
X74887164Y-106457740D01*
X74887164Y-106457740D02*
X74982402Y-106552979D01*
X74982402Y-106552979D02*
X75077640Y-106600598D01*
X75077640Y-106600598D02*
X75268116Y-106600598D01*
X75268116Y-106600598D02*
X75363354Y-106552979D01*
X75363354Y-106552979D02*
X75458592Y-106457740D01*
X75458592Y-106457740D02*
X75506211Y-106267264D01*
X75506211Y-106267264D02*
X75506211Y-105933931D01*
X75506211Y-105933931D02*
X75458592Y-105743455D01*
X75458592Y-105743455D02*
X75363354Y-105648217D01*
X75363354Y-105648217D02*
X75268116Y-105600598D01*
X74458592Y-106314883D02*
X73982402Y-106314883D01*
X74553830Y-106600598D02*
X74220497Y-105600598D01*
X74220497Y-105600598D02*
X73887164Y-106600598D01*
X72982402Y-106600598D02*
X73315735Y-106124407D01*
X73553830Y-106600598D02*
X73553830Y-105600598D01*
X73553830Y-105600598D02*
X73172878Y-105600598D01*
X73172878Y-105600598D02*
X73077640Y-105648217D01*
X73077640Y-105648217D02*
X73030021Y-105695836D01*
X73030021Y-105695836D02*
X72982402Y-105791074D01*
X72982402Y-105791074D02*
X72982402Y-105933931D01*
X72982402Y-105933931D02*
X73030021Y-106029169D01*
X73030021Y-106029169D02*
X73077640Y-106076788D01*
X73077640Y-106076788D02*
X73172878Y-106124407D01*
X73172878Y-106124407D02*
X73553830Y-106124407D01*
X72553830Y-106600598D02*
X72553830Y-105600598D01*
X72553830Y-105600598D02*
X72315735Y-105600598D01*
X72315735Y-105600598D02*
X72172878Y-105648217D01*
X72172878Y-105648217D02*
X72077640Y-105743455D01*
X72077640Y-105743455D02*
X72030021Y-105838693D01*
X72030021Y-105838693D02*
X71982402Y-106029169D01*
X71982402Y-106029169D02*
X71982402Y-106172026D01*
X71982402Y-106172026D02*
X72030021Y-106362502D01*
X72030021Y-106362502D02*
X72077640Y-106457740D01*
X72077640Y-106457740D02*
X72172878Y-106552979D01*
X72172878Y-106552979D02*
X72315735Y-106600598D01*
X72315735Y-106600598D02*
X72553830Y-106600598D01*
X84744307Y-108162979D02*
X84601450Y-108210598D01*
X84601450Y-108210598D02*
X84363355Y-108210598D01*
X84363355Y-108210598D02*
X84268117Y-108162979D01*
X84268117Y-108162979D02*
X84220498Y-108115359D01*
X84220498Y-108115359D02*
X84172879Y-108020121D01*
X84172879Y-108020121D02*
X84172879Y-107924883D01*
X84172879Y-107924883D02*
X84220498Y-107829645D01*
X84220498Y-107829645D02*
X84268117Y-107782026D01*
X84268117Y-107782026D02*
X84363355Y-107734407D01*
X84363355Y-107734407D02*
X84553831Y-107686788D01*
X84553831Y-107686788D02*
X84649069Y-107639169D01*
X84649069Y-107639169D02*
X84696688Y-107591550D01*
X84696688Y-107591550D02*
X84744307Y-107496312D01*
X84744307Y-107496312D02*
X84744307Y-107401074D01*
X84744307Y-107401074D02*
X84696688Y-107305836D01*
X84696688Y-107305836D02*
X84649069Y-107258217D01*
X84649069Y-107258217D02*
X84553831Y-107210598D01*
X84553831Y-107210598D02*
X84315736Y-107210598D01*
X84315736Y-107210598D02*
X84172879Y-107258217D01*
X83744307Y-108210598D02*
X83744307Y-107210598D01*
X82791927Y-108210598D02*
X83268117Y-108210598D01*
X83268117Y-108210598D02*
X83268117Y-107210598D01*
X82601450Y-107210598D02*
X82268117Y-108210598D01*
X82268117Y-108210598D02*
X81934784Y-107210598D01*
X81601450Y-107686788D02*
X81268117Y-107686788D01*
X81125260Y-108210598D02*
X81601450Y-108210598D01*
X81601450Y-108210598D02*
X81601450Y-107210598D01*
X81601450Y-107210598D02*
X81125260Y-107210598D01*
X80125260Y-108210598D02*
X80458593Y-107734407D01*
X80696688Y-108210598D02*
X80696688Y-107210598D01*
X80696688Y-107210598D02*
X80315736Y-107210598D01*
X80315736Y-107210598D02*
X80220498Y-107258217D01*
X80220498Y-107258217D02*
X80172879Y-107305836D01*
X80172879Y-107305836D02*
X80125260Y-107401074D01*
X80125260Y-107401074D02*
X80125260Y-107543931D01*
X80125260Y-107543931D02*
X80172879Y-107639169D01*
X80172879Y-107639169D02*
X80220498Y-107686788D01*
X80220498Y-107686788D02*
X80315736Y-107734407D01*
X80315736Y-107734407D02*
X80696688Y-107734407D01*
X79744307Y-108162979D02*
X79601450Y-108210598D01*
X79601450Y-108210598D02*
X79363355Y-108210598D01*
X79363355Y-108210598D02*
X79268117Y-108162979D01*
X79268117Y-108162979D02*
X79220498Y-108115359D01*
X79220498Y-108115359D02*
X79172879Y-108020121D01*
X79172879Y-108020121D02*
X79172879Y-107924883D01*
X79172879Y-107924883D02*
X79220498Y-107829645D01*
X79220498Y-107829645D02*
X79268117Y-107782026D01*
X79268117Y-107782026D02*
X79363355Y-107734407D01*
X79363355Y-107734407D02*
X79553831Y-107686788D01*
X79553831Y-107686788D02*
X79649069Y-107639169D01*
X79649069Y-107639169D02*
X79696688Y-107591550D01*
X79696688Y-107591550D02*
X79744307Y-107496312D01*
X79744307Y-107496312D02*
X79744307Y-107401074D01*
X79744307Y-107401074D02*
X79696688Y-107305836D01*
X79696688Y-107305836D02*
X79649069Y-107258217D01*
X79649069Y-107258217D02*
X79553831Y-107210598D01*
X79553831Y-107210598D02*
X79315736Y-107210598D01*
X79315736Y-107210598D02*
X79172879Y-107258217D01*
X78887164Y-107210598D02*
X78315736Y-107210598D01*
X78601450Y-108210598D02*
X78601450Y-107210598D01*
X77982402Y-107686788D02*
X77649069Y-107686788D01*
X77506212Y-108210598D02*
X77982402Y-108210598D01*
X77982402Y-108210598D02*
X77982402Y-107210598D01*
X77982402Y-107210598D02*
X77506212Y-107210598D01*
X77077640Y-107686788D02*
X76744307Y-107686788D01*
X76601450Y-108210598D02*
X77077640Y-108210598D01*
X77077640Y-108210598D02*
X77077640Y-107210598D01*
X77077640Y-107210598D02*
X76601450Y-107210598D01*
X75696688Y-108210598D02*
X76172878Y-108210598D01*
X76172878Y-108210598D02*
X76172878Y-107210598D01*
D12*
X71959639Y-117830250D02*
X71959639Y-117963583D01*
X72378687Y-118020726D02*
X72378687Y-117830250D01*
X72378687Y-117830250D02*
X71578687Y-117830250D01*
X71578687Y-117830250D02*
X71578687Y-118020726D01*
X71578687Y-118154059D02*
X72378687Y-118420726D01*
X71578687Y-118420726D02*
X72378687Y-118154059D01*
X71578687Y-118515964D02*
X71578687Y-118744535D01*
X72378687Y-118630249D02*
X71578687Y-118630249D01*
X72378687Y-118877869D02*
X71578687Y-118877869D01*
X72378687Y-119068345D02*
X71578687Y-119068345D01*
X71578687Y-119068345D02*
X72378687Y-119296916D01*
X72378687Y-119296916D02*
X71578687Y-119296916D01*
X74954687Y-117830250D02*
X74154687Y-117830250D01*
X74954687Y-118020726D02*
X74154687Y-118020726D01*
X74154687Y-118020726D02*
X74954687Y-118249297D01*
X74954687Y-118249297D02*
X74154687Y-118249297D01*
X74154687Y-118382631D02*
X74154687Y-118611202D01*
X74954687Y-118496916D02*
X74154687Y-118496916D01*
X77225925Y-117830250D02*
X77225925Y-118135012D01*
X77530687Y-117982631D02*
X76921163Y-117982631D01*
X77530687Y-118535011D02*
X77530687Y-118306440D01*
X77530687Y-118420726D02*
X76730687Y-118420726D01*
X76730687Y-118420726D02*
X76844972Y-118382630D01*
X76844972Y-118382630D02*
X76921163Y-118344535D01*
X76921163Y-118344535D02*
X76959258Y-118306440D01*
X76806877Y-118687392D02*
X76768782Y-118706440D01*
X76768782Y-118706440D02*
X76730687Y-118744535D01*
X76730687Y-118744535D02*
X76730687Y-118839773D01*
X76730687Y-118839773D02*
X76768782Y-118877868D01*
X76768782Y-118877868D02*
X76806877Y-118896916D01*
X76806877Y-118896916D02*
X76883068Y-118915963D01*
X76883068Y-118915963D02*
X76959258Y-118915963D01*
X76959258Y-118915963D02*
X77073544Y-118896916D01*
X77073544Y-118896916D02*
X77530687Y-118668344D01*
X77530687Y-118668344D02*
X77530687Y-118915963D01*
X76730687Y-119030249D02*
X77530687Y-119163582D01*
X77530687Y-119163582D02*
X76730687Y-119296915D01*
X79801925Y-117830250D02*
X79801925Y-118135012D01*
X80106687Y-117982631D02*
X79497163Y-117982631D01*
X79306687Y-118287392D02*
X79306687Y-118535011D01*
X79306687Y-118535011D02*
X79611449Y-118401678D01*
X79611449Y-118401678D02*
X79611449Y-118458821D01*
X79611449Y-118458821D02*
X79649544Y-118496916D01*
X79649544Y-118496916D02*
X79687639Y-118515964D01*
X79687639Y-118515964D02*
X79763830Y-118535011D01*
X79763830Y-118535011D02*
X79954306Y-118535011D01*
X79954306Y-118535011D02*
X80030496Y-118515964D01*
X80030496Y-118515964D02*
X80068592Y-118496916D01*
X80068592Y-118496916D02*
X80106687Y-118458821D01*
X80106687Y-118458821D02*
X80106687Y-118344535D01*
X80106687Y-118344535D02*
X80068592Y-118306440D01*
X80068592Y-118306440D02*
X80030496Y-118287392D01*
X80030496Y-118706440D02*
X80068592Y-118725487D01*
X80068592Y-118725487D02*
X80106687Y-118706440D01*
X80106687Y-118706440D02*
X80068592Y-118687392D01*
X80068592Y-118687392D02*
X80030496Y-118706440D01*
X80030496Y-118706440D02*
X80106687Y-118706440D01*
X79306687Y-118858820D02*
X79306687Y-119106439D01*
X79306687Y-119106439D02*
X79611449Y-118973106D01*
X79611449Y-118973106D02*
X79611449Y-119030249D01*
X79611449Y-119030249D02*
X79649544Y-119068344D01*
X79649544Y-119068344D02*
X79687639Y-119087392D01*
X79687639Y-119087392D02*
X79763830Y-119106439D01*
X79763830Y-119106439D02*
X79954306Y-119106439D01*
X79954306Y-119106439D02*
X80030496Y-119087392D01*
X80030496Y-119087392D02*
X80068592Y-119068344D01*
X80068592Y-119068344D02*
X80106687Y-119030249D01*
X80106687Y-119030249D02*
X80106687Y-118915963D01*
X80106687Y-118915963D02*
X80068592Y-118877868D01*
X80068592Y-118877868D02*
X80030496Y-118858820D01*
X79306687Y-119220725D02*
X80106687Y-119354058D01*
X80106687Y-119354058D02*
X79306687Y-119487391D01*
X82682687Y-117830250D02*
X81882687Y-117830250D01*
X81882687Y-117830250D02*
X81882687Y-117925488D01*
X81882687Y-117925488D02*
X81920782Y-117982631D01*
X81920782Y-117982631D02*
X81996972Y-118020726D01*
X81996972Y-118020726D02*
X82073163Y-118039773D01*
X82073163Y-118039773D02*
X82225544Y-118058821D01*
X82225544Y-118058821D02*
X82339830Y-118058821D01*
X82339830Y-118058821D02*
X82492211Y-118039773D01*
X82492211Y-118039773D02*
X82568401Y-118020726D01*
X82568401Y-118020726D02*
X82644592Y-117982631D01*
X82644592Y-117982631D02*
X82682687Y-117925488D01*
X82682687Y-117925488D02*
X82682687Y-117830250D01*
X82682687Y-118230250D02*
X81882687Y-118230250D01*
X84496782Y-118039773D02*
X84458687Y-118001678D01*
X84458687Y-118001678D02*
X84458687Y-117944535D01*
X84458687Y-117944535D02*
X84496782Y-117887392D01*
X84496782Y-117887392D02*
X84572972Y-117849297D01*
X84572972Y-117849297D02*
X84649163Y-117830250D01*
X84649163Y-117830250D02*
X84801544Y-117811202D01*
X84801544Y-117811202D02*
X84915830Y-117811202D01*
X84915830Y-117811202D02*
X85068211Y-117830250D01*
X85068211Y-117830250D02*
X85144401Y-117849297D01*
X85144401Y-117849297D02*
X85220592Y-117887392D01*
X85220592Y-117887392D02*
X85258687Y-117944535D01*
X85258687Y-117944535D02*
X85258687Y-117982631D01*
X85258687Y-117982631D02*
X85220592Y-118039773D01*
X85220592Y-118039773D02*
X85182496Y-118058821D01*
X85182496Y-118058821D02*
X84915830Y-118058821D01*
X84915830Y-118058821D02*
X84915830Y-117982631D01*
X85258687Y-118230250D02*
X84458687Y-118230250D01*
X84458687Y-118230250D02*
X85258687Y-118458821D01*
X85258687Y-118458821D02*
X84458687Y-118458821D01*
X85258687Y-118649298D02*
X84458687Y-118649298D01*
X84458687Y-118649298D02*
X84458687Y-118744536D01*
X84458687Y-118744536D02*
X84496782Y-118801679D01*
X84496782Y-118801679D02*
X84572972Y-118839774D01*
X84572972Y-118839774D02*
X84649163Y-118858821D01*
X84649163Y-118858821D02*
X84801544Y-118877869D01*
X84801544Y-118877869D02*
X84915830Y-118877869D01*
X84915830Y-118877869D02*
X85068211Y-118858821D01*
X85068211Y-118858821D02*
X85144401Y-118839774D01*
X85144401Y-118839774D02*
X85220592Y-118801679D01*
X85220592Y-118801679D02*
X85258687Y-118744536D01*
X85258687Y-118744536D02*
X85258687Y-118649298D01*
D11*
X91737255Y-109375601D02*
X91680112Y-109280363D01*
X91680112Y-109280363D02*
X91680112Y-109137506D01*
X91680112Y-109137506D02*
X91737255Y-108994649D01*
X91737255Y-108994649D02*
X91851541Y-108899411D01*
X91851541Y-108899411D02*
X91965827Y-108851792D01*
X91965827Y-108851792D02*
X92194398Y-108804173D01*
X92194398Y-108804173D02*
X92365827Y-108804173D01*
X92365827Y-108804173D02*
X92594398Y-108851792D01*
X92594398Y-108851792D02*
X92708684Y-108899411D01*
X92708684Y-108899411D02*
X92822970Y-108994649D01*
X92822970Y-108994649D02*
X92880112Y-109137506D01*
X92880112Y-109137506D02*
X92880112Y-109232744D01*
X92880112Y-109232744D02*
X92822970Y-109375601D01*
X92822970Y-109375601D02*
X92765827Y-109423220D01*
X92765827Y-109423220D02*
X92365827Y-109423220D01*
X92365827Y-109423220D02*
X92365827Y-109232744D01*
X92880112Y-109851792D02*
X91680112Y-109851792D01*
X91680112Y-109851792D02*
X92880112Y-110423220D01*
X92880112Y-110423220D02*
X91680112Y-110423220D01*
X92880112Y-110899411D02*
X91680112Y-110899411D01*
X91680112Y-110899411D02*
X91680112Y-111137506D01*
X91680112Y-111137506D02*
X91737255Y-111280363D01*
X91737255Y-111280363D02*
X91851541Y-111375601D01*
X91851541Y-111375601D02*
X91965827Y-111423220D01*
X91965827Y-111423220D02*
X92194398Y-111470839D01*
X92194398Y-111470839D02*
X92365827Y-111470839D01*
X92365827Y-111470839D02*
X92594398Y-111423220D01*
X92594398Y-111423220D02*
X92708684Y-111375601D01*
X92708684Y-111375601D02*
X92822970Y-111280363D01*
X92822970Y-111280363D02*
X92880112Y-111137506D01*
X92880112Y-111137506D02*
X92880112Y-110899411D01*
X94812112Y-110423221D02*
X93612112Y-110423221D01*
X93612112Y-110423221D02*
X93612112Y-110661316D01*
X93612112Y-110661316D02*
X93669255Y-110804173D01*
X93669255Y-110804173D02*
X93783541Y-110899411D01*
X93783541Y-110899411D02*
X93897827Y-110947030D01*
X93897827Y-110947030D02*
X94126398Y-110994649D01*
X94126398Y-110994649D02*
X94297827Y-110994649D01*
X94297827Y-110994649D02*
X94526398Y-110947030D01*
X94526398Y-110947030D02*
X94640684Y-110899411D01*
X94640684Y-110899411D02*
X94754970Y-110804173D01*
X94754970Y-110804173D02*
X94812112Y-110661316D01*
X94812112Y-110661316D02*
X94812112Y-110423221D01*
X94812112Y-111423221D02*
X93612112Y-111423221D01*
X96286970Y-107423221D02*
X96286970Y-108185126D01*
X96744112Y-107804173D02*
X95829827Y-107804173D01*
X95544112Y-108566078D02*
X95544112Y-109185125D01*
X95544112Y-109185125D02*
X96001255Y-108851792D01*
X96001255Y-108851792D02*
X96001255Y-108994649D01*
X96001255Y-108994649D02*
X96058398Y-109089887D01*
X96058398Y-109089887D02*
X96115541Y-109137506D01*
X96115541Y-109137506D02*
X96229827Y-109185125D01*
X96229827Y-109185125D02*
X96515541Y-109185125D01*
X96515541Y-109185125D02*
X96629827Y-109137506D01*
X96629827Y-109137506D02*
X96686970Y-109089887D01*
X96686970Y-109089887D02*
X96744112Y-108994649D01*
X96744112Y-108994649D02*
X96744112Y-108708935D01*
X96744112Y-108708935D02*
X96686970Y-108613697D01*
X96686970Y-108613697D02*
X96629827Y-108566078D01*
X96629827Y-109613697D02*
X96686970Y-109661316D01*
X96686970Y-109661316D02*
X96744112Y-109613697D01*
X96744112Y-109613697D02*
X96686970Y-109566078D01*
X96686970Y-109566078D02*
X96629827Y-109613697D01*
X96629827Y-109613697D02*
X96744112Y-109613697D01*
X95544112Y-109994649D02*
X95544112Y-110613696D01*
X95544112Y-110613696D02*
X96001255Y-110280363D01*
X96001255Y-110280363D02*
X96001255Y-110423220D01*
X96001255Y-110423220D02*
X96058398Y-110518458D01*
X96058398Y-110518458D02*
X96115541Y-110566077D01*
X96115541Y-110566077D02*
X96229827Y-110613696D01*
X96229827Y-110613696D02*
X96515541Y-110613696D01*
X96515541Y-110613696D02*
X96629827Y-110566077D01*
X96629827Y-110566077D02*
X96686970Y-110518458D01*
X96686970Y-110518458D02*
X96744112Y-110423220D01*
X96744112Y-110423220D02*
X96744112Y-110137506D01*
X96744112Y-110137506D02*
X96686970Y-110042268D01*
X96686970Y-110042268D02*
X96629827Y-109994649D01*
X95544112Y-110899411D02*
X96744112Y-111232744D01*
X96744112Y-111232744D02*
X95544112Y-111566077D01*
X98218970Y-107899411D02*
X98218970Y-108661316D01*
X98676112Y-108280363D02*
X97761827Y-108280363D01*
X98676112Y-109661315D02*
X98676112Y-109089887D01*
X98676112Y-109375601D02*
X97476112Y-109375601D01*
X97476112Y-109375601D02*
X97647541Y-109280363D01*
X97647541Y-109280363D02*
X97761827Y-109185125D01*
X97761827Y-109185125D02*
X97818970Y-109089887D01*
X97590398Y-110042268D02*
X97533255Y-110089887D01*
X97533255Y-110089887D02*
X97476112Y-110185125D01*
X97476112Y-110185125D02*
X97476112Y-110423220D01*
X97476112Y-110423220D02*
X97533255Y-110518458D01*
X97533255Y-110518458D02*
X97590398Y-110566077D01*
X97590398Y-110566077D02*
X97704684Y-110613696D01*
X97704684Y-110613696D02*
X97818970Y-110613696D01*
X97818970Y-110613696D02*
X97990398Y-110566077D01*
X97990398Y-110566077D02*
X98676112Y-109994649D01*
X98676112Y-109994649D02*
X98676112Y-110613696D01*
X97476112Y-110899411D02*
X98676112Y-111232744D01*
X98676112Y-111232744D02*
X97476112Y-111566077D01*
X100608112Y-109613697D02*
X99408112Y-109613697D01*
X100608112Y-110089887D02*
X99408112Y-110089887D01*
X99408112Y-110089887D02*
X100608112Y-110661315D01*
X100608112Y-110661315D02*
X99408112Y-110661315D01*
X99408112Y-110994649D02*
X99408112Y-111566077D01*
X100608112Y-111280363D02*
X99408112Y-111280363D01*
X101911541Y-107756554D02*
X101911541Y-108089887D01*
X102540112Y-108232744D02*
X102540112Y-107756554D01*
X102540112Y-107756554D02*
X101340112Y-107756554D01*
X101340112Y-107756554D02*
X101340112Y-108232744D01*
X101340112Y-108566078D02*
X102540112Y-109232744D01*
X101340112Y-109232744D02*
X102540112Y-108566078D01*
X101340112Y-109470840D02*
X101340112Y-110042268D01*
X102540112Y-109756554D02*
X101340112Y-109756554D01*
X102540112Y-110375602D02*
X101340112Y-110375602D01*
X102540112Y-110851792D02*
X101340112Y-110851792D01*
X101340112Y-110851792D02*
X102540112Y-111423220D01*
X102540112Y-111423220D02*
X101340112Y-111423220D01*
D12*
X71713344Y-111281644D02*
X71675249Y-111243549D01*
X71675249Y-111243549D02*
X71675249Y-111186406D01*
X71675249Y-111186406D02*
X71713344Y-111129263D01*
X71713344Y-111129263D02*
X71789534Y-111091168D01*
X71789534Y-111091168D02*
X71865725Y-111072121D01*
X71865725Y-111072121D02*
X72018106Y-111053073D01*
X72018106Y-111053073D02*
X72132392Y-111053073D01*
X72132392Y-111053073D02*
X72284773Y-111072121D01*
X72284773Y-111072121D02*
X72360963Y-111091168D01*
X72360963Y-111091168D02*
X72437154Y-111129263D01*
X72437154Y-111129263D02*
X72475249Y-111186406D01*
X72475249Y-111186406D02*
X72475249Y-111224502D01*
X72475249Y-111224502D02*
X72437154Y-111281644D01*
X72437154Y-111281644D02*
X72399058Y-111300692D01*
X72399058Y-111300692D02*
X72132392Y-111300692D01*
X72132392Y-111300692D02*
X72132392Y-111224502D01*
X72475249Y-111472121D02*
X71675249Y-111472121D01*
X71675249Y-111472121D02*
X72475249Y-111700692D01*
X72475249Y-111700692D02*
X71675249Y-111700692D01*
X72475249Y-111891169D02*
X71675249Y-111891169D01*
X71675249Y-111891169D02*
X71675249Y-111986407D01*
X71675249Y-111986407D02*
X71713344Y-112043550D01*
X71713344Y-112043550D02*
X71789534Y-112081645D01*
X71789534Y-112081645D02*
X71865725Y-112100692D01*
X71865725Y-112100692D02*
X72018106Y-112119740D01*
X72018106Y-112119740D02*
X72132392Y-112119740D01*
X72132392Y-112119740D02*
X72284773Y-112100692D01*
X72284773Y-112100692D02*
X72360963Y-112081645D01*
X72360963Y-112081645D02*
X72437154Y-112043550D01*
X72437154Y-112043550D02*
X72475249Y-111986407D01*
X72475249Y-111986407D02*
X72475249Y-111891169D01*
X74975058Y-111395930D02*
X75013154Y-111376882D01*
X75013154Y-111376882D02*
X75051249Y-111319740D01*
X75051249Y-111319740D02*
X75051249Y-111281644D01*
X75051249Y-111281644D02*
X75013154Y-111224501D01*
X75013154Y-111224501D02*
X74936963Y-111186406D01*
X74936963Y-111186406D02*
X74860773Y-111167359D01*
X74860773Y-111167359D02*
X74708392Y-111148311D01*
X74708392Y-111148311D02*
X74594106Y-111148311D01*
X74594106Y-111148311D02*
X74441725Y-111167359D01*
X74441725Y-111167359D02*
X74365534Y-111186406D01*
X74365534Y-111186406D02*
X74289344Y-111224501D01*
X74289344Y-111224501D02*
X74251249Y-111281644D01*
X74251249Y-111281644D02*
X74251249Y-111319740D01*
X74251249Y-111319740D02*
X74289344Y-111376882D01*
X74289344Y-111376882D02*
X74327439Y-111395930D01*
X75051249Y-111757835D02*
X75051249Y-111567359D01*
X75051249Y-111567359D02*
X74251249Y-111567359D01*
X75051249Y-111891169D02*
X74251249Y-111891169D01*
X75051249Y-112119740D02*
X74594106Y-111948311D01*
X74251249Y-112119740D02*
X74708392Y-111891169D01*
X77627249Y-111472121D02*
X76827249Y-111472121D01*
X76827249Y-111472121D02*
X76827249Y-111567359D01*
X76827249Y-111567359D02*
X76865344Y-111624502D01*
X76865344Y-111624502D02*
X76941534Y-111662597D01*
X76941534Y-111662597D02*
X77017725Y-111681644D01*
X77017725Y-111681644D02*
X77170106Y-111700692D01*
X77170106Y-111700692D02*
X77284392Y-111700692D01*
X77284392Y-111700692D02*
X77436773Y-111681644D01*
X77436773Y-111681644D02*
X77512963Y-111662597D01*
X77512963Y-111662597D02*
X77589154Y-111624502D01*
X77589154Y-111624502D02*
X77627249Y-111567359D01*
X77627249Y-111567359D02*
X77627249Y-111472121D01*
X76827249Y-111948311D02*
X76827249Y-112024502D01*
X76827249Y-112024502D02*
X76865344Y-112062597D01*
X76865344Y-112062597D02*
X76941534Y-112100692D01*
X76941534Y-112100692D02*
X77093915Y-112119740D01*
X77093915Y-112119740D02*
X77360582Y-112119740D01*
X77360582Y-112119740D02*
X77512963Y-112100692D01*
X77512963Y-112100692D02*
X77589154Y-112062597D01*
X77589154Y-112062597D02*
X77627249Y-112024502D01*
X77627249Y-112024502D02*
X77627249Y-111948311D01*
X77627249Y-111948311D02*
X77589154Y-111910216D01*
X77589154Y-111910216D02*
X77512963Y-111872121D01*
X77512963Y-111872121D02*
X77360582Y-111853073D01*
X77360582Y-111853073D02*
X77093915Y-111853073D01*
X77093915Y-111853073D02*
X76941534Y-111872121D01*
X76941534Y-111872121D02*
X76865344Y-111910216D01*
X76865344Y-111910216D02*
X76827249Y-111948311D01*
X79898487Y-110500694D02*
X79898487Y-110805456D01*
X80203249Y-110653075D02*
X79593725Y-110653075D01*
X79403249Y-110957836D02*
X79403249Y-111205455D01*
X79403249Y-111205455D02*
X79708011Y-111072122D01*
X79708011Y-111072122D02*
X79708011Y-111129265D01*
X79708011Y-111129265D02*
X79746106Y-111167360D01*
X79746106Y-111167360D02*
X79784201Y-111186408D01*
X79784201Y-111186408D02*
X79860392Y-111205455D01*
X79860392Y-111205455D02*
X80050868Y-111205455D01*
X80050868Y-111205455D02*
X80127058Y-111186408D01*
X80127058Y-111186408D02*
X80165154Y-111167360D01*
X80165154Y-111167360D02*
X80203249Y-111129265D01*
X80203249Y-111129265D02*
X80203249Y-111014979D01*
X80203249Y-111014979D02*
X80165154Y-110976884D01*
X80165154Y-110976884D02*
X80127058Y-110957836D01*
X80127058Y-111376884D02*
X80165154Y-111395931D01*
X80165154Y-111395931D02*
X80203249Y-111376884D01*
X80203249Y-111376884D02*
X80165154Y-111357836D01*
X80165154Y-111357836D02*
X80127058Y-111376884D01*
X80127058Y-111376884D02*
X80203249Y-111376884D01*
X79403249Y-111529264D02*
X79403249Y-111776883D01*
X79403249Y-111776883D02*
X79708011Y-111643550D01*
X79708011Y-111643550D02*
X79708011Y-111700693D01*
X79708011Y-111700693D02*
X79746106Y-111738788D01*
X79746106Y-111738788D02*
X79784201Y-111757836D01*
X79784201Y-111757836D02*
X79860392Y-111776883D01*
X79860392Y-111776883D02*
X80050868Y-111776883D01*
X80050868Y-111776883D02*
X80127058Y-111757836D01*
X80127058Y-111757836D02*
X80165154Y-111738788D01*
X80165154Y-111738788D02*
X80203249Y-111700693D01*
X80203249Y-111700693D02*
X80203249Y-111586407D01*
X80203249Y-111586407D02*
X80165154Y-111548312D01*
X80165154Y-111548312D02*
X80127058Y-111529264D01*
X79403249Y-111891169D02*
X80203249Y-112024502D01*
X80203249Y-112024502D02*
X79403249Y-112157835D01*
X82703058Y-111738788D02*
X82741154Y-111719740D01*
X82741154Y-111719740D02*
X82779249Y-111662598D01*
X82779249Y-111662598D02*
X82779249Y-111624502D01*
X82779249Y-111624502D02*
X82741154Y-111567359D01*
X82741154Y-111567359D02*
X82664963Y-111529264D01*
X82664963Y-111529264D02*
X82588773Y-111510217D01*
X82588773Y-111510217D02*
X82436392Y-111491169D01*
X82436392Y-111491169D02*
X82322106Y-111491169D01*
X82322106Y-111491169D02*
X82169725Y-111510217D01*
X82169725Y-111510217D02*
X82093534Y-111529264D01*
X82093534Y-111529264D02*
X82017344Y-111567359D01*
X82017344Y-111567359D02*
X81979249Y-111624502D01*
X81979249Y-111624502D02*
X81979249Y-111662598D01*
X81979249Y-111662598D02*
X82017344Y-111719740D01*
X82017344Y-111719740D02*
X82055439Y-111738788D01*
X82741154Y-111891169D02*
X82779249Y-111948312D01*
X82779249Y-111948312D02*
X82779249Y-112043550D01*
X82779249Y-112043550D02*
X82741154Y-112081645D01*
X82741154Y-112081645D02*
X82703058Y-112100693D01*
X82703058Y-112100693D02*
X82626868Y-112119740D01*
X82626868Y-112119740D02*
X82550677Y-112119740D01*
X82550677Y-112119740D02*
X82474487Y-112100693D01*
X82474487Y-112100693D02*
X82436392Y-112081645D01*
X82436392Y-112081645D02*
X82398296Y-112043550D01*
X82398296Y-112043550D02*
X82360201Y-111967359D01*
X82360201Y-111967359D02*
X82322106Y-111929264D01*
X82322106Y-111929264D02*
X82284011Y-111910217D01*
X82284011Y-111910217D02*
X82207820Y-111891169D01*
X82207820Y-111891169D02*
X82131630Y-111891169D01*
X82131630Y-111891169D02*
X82055439Y-111910217D01*
X82055439Y-111910217D02*
X82017344Y-111929264D01*
X82017344Y-111929264D02*
X81979249Y-111967359D01*
X81979249Y-111967359D02*
X81979249Y-112062598D01*
X81979249Y-112062598D02*
X82017344Y-112119740D01*
X84593344Y-111281644D02*
X84555249Y-111243549D01*
X84555249Y-111243549D02*
X84555249Y-111186406D01*
X84555249Y-111186406D02*
X84593344Y-111129263D01*
X84593344Y-111129263D02*
X84669534Y-111091168D01*
X84669534Y-111091168D02*
X84745725Y-111072121D01*
X84745725Y-111072121D02*
X84898106Y-111053073D01*
X84898106Y-111053073D02*
X85012392Y-111053073D01*
X85012392Y-111053073D02*
X85164773Y-111072121D01*
X85164773Y-111072121D02*
X85240963Y-111091168D01*
X85240963Y-111091168D02*
X85317154Y-111129263D01*
X85317154Y-111129263D02*
X85355249Y-111186406D01*
X85355249Y-111186406D02*
X85355249Y-111224502D01*
X85355249Y-111224502D02*
X85317154Y-111281644D01*
X85317154Y-111281644D02*
X85279058Y-111300692D01*
X85279058Y-111300692D02*
X85012392Y-111300692D01*
X85012392Y-111300692D02*
X85012392Y-111224502D01*
X85355249Y-111472121D02*
X84555249Y-111472121D01*
X84555249Y-111472121D02*
X85355249Y-111700692D01*
X85355249Y-111700692D02*
X84555249Y-111700692D01*
X85355249Y-111891169D02*
X84555249Y-111891169D01*
X84555249Y-111891169D02*
X84555249Y-111986407D01*
X84555249Y-111986407D02*
X84593344Y-112043550D01*
X84593344Y-112043550D02*
X84669534Y-112081645D01*
X84669534Y-112081645D02*
X84745725Y-112100692D01*
X84745725Y-112100692D02*
X84898106Y-112119740D01*
X84898106Y-112119740D02*
X85012392Y-112119740D01*
X85012392Y-112119740D02*
X85164773Y-112100692D01*
X85164773Y-112100692D02*
X85240963Y-112081645D01*
X85240963Y-112081645D02*
X85317154Y-112043550D01*
X85317154Y-112043550D02*
X85355249Y-111986407D01*
X85355249Y-111986407D02*
X85355249Y-111891169D01*
%LPC*%
D13*
X72111319Y-116251337D03*
D14*
X72111319Y-113711337D03*
X74651319Y-116251337D03*
X74651319Y-113711337D03*
X77191319Y-116251337D03*
X77191319Y-113711337D03*
X79731319Y-116251337D03*
X79731319Y-113711337D03*
X82271319Y-116251337D03*
X82271319Y-113711337D03*
X84811319Y-116251337D03*
X84811319Y-113711337D03*
D15*
X102064286Y-115900000D03*
X100064286Y-115900000D03*
X98064286Y-115900000D03*
X96064286Y-115900000D03*
X94064286Y-115900000D03*
X92064286Y-115900000D03*
%LPD*%
M02*
