G04 #@! TF.GenerationSoftware,KiCad,Pcbnew,7.0.7*
G04 #@! TF.CreationDate,2024-03-03T16:13:36-05:00*
G04 #@! TF.ProjectId,Gamecube_SP1,47616d65-6375-4626-955f-5350312e6b69,rev?*
G04 #@! TF.SameCoordinates,Original*
G04 #@! TF.FileFunction,Copper,L2,Bot*
G04 #@! TF.FilePolarity,Positive*
%FSLAX46Y46*%
G04 Gerber Fmt 4.6, Leading zero omitted, Abs format (unit mm)*
G04 Created by KiCad (PCBNEW 7.0.7) date 2024-03-03 16:13:36*
%MOMM*%
%LPD*%
G01*
G04 APERTURE LIST*
G04 #@! TA.AperFunction,ComponentPad*
%ADD10R,1.700000X1.700000*%
G04 #@! TD*
G04 #@! TA.AperFunction,ComponentPad*
%ADD11O,1.700000X1.700000*%
G04 #@! TD*
G04 #@! TA.AperFunction,SMDPad,CuDef*
%ADD12R,1.500000X7.000000*%
G04 #@! TD*
G04 #@! TA.AperFunction,ViaPad*
%ADD13C,0.800000*%
G04 #@! TD*
G04 #@! TA.AperFunction,Conductor*
%ADD14C,0.600000*%
G04 #@! TD*
G04 #@! TA.AperFunction,Conductor*
%ADD15C,0.250000*%
G04 #@! TD*
G04 APERTURE END LIST*
D10*
X72111319Y-116251337D03*
D11*
X72111319Y-113711337D03*
X74651319Y-116251337D03*
X74651319Y-113711337D03*
X77191319Y-116251337D03*
X77191319Y-113711337D03*
X79731319Y-116251337D03*
X79731319Y-113711337D03*
X82271319Y-116251337D03*
X82271319Y-113711337D03*
X84811319Y-116251337D03*
X84811319Y-113711337D03*
D12*
X102064286Y-115900000D03*
X100064286Y-115900000D03*
X98064286Y-115900000D03*
X96064286Y-115900000D03*
X94064286Y-115900000D03*
X92064286Y-115900000D03*
D13*
X96314286Y-102313640D03*
X82880000Y-118400000D03*
X76200000Y-106680000D03*
X108400000Y-110290800D03*
X71120000Y-106680000D03*
X108400000Y-102600000D03*
X71120000Y-119380000D03*
X102020000Y-102700000D03*
X76500000Y-102700000D03*
X99060000Y-106680000D03*
X89200000Y-103599500D03*
X101600000Y-106680000D03*
X71120000Y-109220000D03*
X76500000Y-118400000D03*
X108400000Y-117500000D03*
X71120000Y-104140000D03*
X82880000Y-102700000D03*
X104140000Y-110390800D03*
D14*
X78450312Y-114992344D02*
X78450312Y-112706717D01*
X83688830Y-107468199D02*
X94117586Y-107468199D01*
X94117586Y-107468199D02*
X98064286Y-111414899D01*
X98064286Y-111414899D02*
X98064286Y-115900000D01*
X77191319Y-116251337D02*
X78450312Y-114992344D01*
X78450312Y-112706717D02*
X83688830Y-107468199D01*
X85135498Y-108899500D02*
X93067635Y-108899500D01*
X79731319Y-116251337D02*
X80990312Y-114992344D01*
X93067635Y-108899500D02*
X96064286Y-111896151D01*
X80990312Y-114992344D02*
X80990312Y-113044686D01*
X96064286Y-111896151D02*
X96064286Y-115900000D01*
X80990312Y-113044686D02*
X85135498Y-108899500D01*
D15*
X73476319Y-111394925D02*
X80546744Y-104324500D01*
X72111319Y-116251337D02*
X73476319Y-114886337D01*
X73476319Y-114886337D02*
X73476319Y-111394925D01*
X102064286Y-112224286D02*
X102064286Y-115900000D01*
X80546744Y-104324500D02*
X94164500Y-104324500D01*
X94164500Y-104324500D02*
X102064286Y-112224286D01*
X82060500Y-105899500D02*
X94316387Y-105899500D01*
X94316387Y-105899500D02*
X100064286Y-111647399D01*
X100064286Y-111647399D02*
X100064286Y-115900000D01*
X76016319Y-114886337D02*
X76016319Y-111943681D01*
X76016319Y-111943681D02*
X82060500Y-105899500D01*
X74651319Y-116251337D02*
X76016319Y-114886337D01*
X83636319Y-114886337D02*
X83636319Y-113224636D01*
X83636319Y-113224636D02*
X86461455Y-110399500D01*
X92619500Y-110399500D02*
X94064286Y-111844286D01*
X94064286Y-111844286D02*
X94064286Y-115900000D01*
X86461455Y-110399500D02*
X92619500Y-110399500D01*
X82271319Y-116251337D02*
X83636319Y-114886337D01*
X92064286Y-115900000D02*
X92064286Y-112664286D01*
X92064286Y-112664286D02*
X91400000Y-112000000D01*
X86500000Y-114530286D02*
X84780286Y-116250000D01*
X87500000Y-112000000D02*
X86500000Y-113000000D01*
X86500000Y-113000000D02*
X86500000Y-114530286D01*
X91400000Y-112000000D02*
X87500000Y-112000000D01*
G04 #@! TA.AperFunction,Conductor*
G36*
X110430907Y-101095502D02*
G01*
X110477400Y-101149158D01*
X110488786Y-101201500D01*
X110488786Y-119798500D01*
X110468784Y-119866621D01*
X110415128Y-119913114D01*
X110362786Y-119924500D01*
X105265786Y-119924500D01*
X105197665Y-119904498D01*
X105151172Y-119850842D01*
X105139786Y-119798500D01*
X105139786Y-113045529D01*
X105141700Y-113023648D01*
X105143408Y-113013955D01*
X105143410Y-113013952D01*
X105141700Y-113004253D01*
X105140535Y-112990940D01*
X105139786Y-112986692D01*
X105139786Y-112986688D01*
X105139784Y-112986683D01*
X105139034Y-112982428D01*
X105135576Y-112969522D01*
X105133867Y-112959829D01*
X105133867Y-112959828D01*
X105133865Y-112959827D01*
X105130348Y-112953735D01*
X105125835Y-112948355D01*
X105117302Y-112943429D01*
X105099311Y-112930831D01*
X105091765Y-112924499D01*
X105085167Y-112922097D01*
X105078238Y-112920875D01*
X105068540Y-112922586D01*
X105046661Y-112924500D01*
X103448786Y-112924500D01*
X103380665Y-112904498D01*
X103334172Y-112850842D01*
X103322786Y-112798500D01*
X103322786Y-112351367D01*
X103322785Y-112351350D01*
X103316276Y-112290803D01*
X103316274Y-112290795D01*
X103287210Y-112212875D01*
X103265175Y-112153796D01*
X103265174Y-112153794D01*
X103265173Y-112153792D01*
X103177547Y-112036738D01*
X103060493Y-111949112D01*
X103060488Y-111949110D01*
X102923490Y-111898011D01*
X102923482Y-111898009D01*
X102862935Y-111891500D01*
X102862924Y-111891500D01*
X102675339Y-111891500D01*
X102607218Y-111871498D01*
X102575059Y-111838123D01*
X102573687Y-111839188D01*
X102568829Y-111832925D01*
X102568828Y-111832924D01*
X102554500Y-111818596D01*
X102541670Y-111803575D01*
X102529758Y-111787179D01*
X102529755Y-111787177D01*
X102529755Y-111787176D01*
X102493393Y-111757094D01*
X102489012Y-111753108D01*
X94671744Y-103935839D01*
X94661779Y-103923401D01*
X94661552Y-103923590D01*
X94656501Y-103917484D01*
X94656500Y-103917482D01*
X94605421Y-103869516D01*
X94594930Y-103859025D01*
X94584277Y-103848371D01*
X94584272Y-103848366D01*
X94578725Y-103844063D01*
X94574217Y-103840212D01*
X94539825Y-103807917D01*
X94539819Y-103807913D01*
X94522063Y-103798151D01*
X94505547Y-103787302D01*
X94489541Y-103774886D01*
X94458789Y-103761578D01*
X94446240Y-103756148D01*
X94440908Y-103753536D01*
X94399561Y-103730805D01*
X94379936Y-103725766D01*
X94361236Y-103719364D01*
X94342645Y-103711319D01*
X94342643Y-103711318D01*
X94342642Y-103711318D01*
X94296042Y-103703937D01*
X94290229Y-103702733D01*
X94244530Y-103691000D01*
X94224276Y-103691000D01*
X94204566Y-103689449D01*
X94184557Y-103686280D01*
X94184556Y-103686280D01*
X94137583Y-103690720D01*
X94131650Y-103691000D01*
X80630597Y-103691000D01*
X80614755Y-103689250D01*
X80614728Y-103689544D01*
X80606835Y-103688797D01*
X80536772Y-103691000D01*
X80506888Y-103691000D01*
X80506884Y-103691000D01*
X80506873Y-103691001D01*
X80499934Y-103691877D01*
X80494021Y-103692343D01*
X80446858Y-103693825D01*
X80446851Y-103693827D01*
X80427393Y-103699479D01*
X80408048Y-103703485D01*
X80387950Y-103706025D01*
X80387941Y-103706027D01*
X80344075Y-103723394D01*
X80338460Y-103725317D01*
X80293152Y-103738481D01*
X80275708Y-103748797D01*
X80257962Y-103757490D01*
X80239126Y-103764948D01*
X80200953Y-103792681D01*
X80195992Y-103795940D01*
X80155382Y-103819958D01*
X80141055Y-103834284D01*
X80126029Y-103847117D01*
X80109639Y-103859025D01*
X80109637Y-103859027D01*
X80079552Y-103895392D01*
X80075556Y-103899783D01*
X73087655Y-110887682D01*
X73075220Y-110897646D01*
X73075408Y-110897873D01*
X73069299Y-110902926D01*
X73021335Y-110954003D01*
X73000185Y-110975152D01*
X72995879Y-110980702D01*
X72992033Y-110985204D01*
X72959736Y-111019599D01*
X72959730Y-111019608D01*
X72949970Y-111037360D01*
X72939122Y-111053875D01*
X72926705Y-111069883D01*
X72907964Y-111113189D01*
X72905353Y-111118519D01*
X72882624Y-111159864D01*
X72882622Y-111159869D01*
X72877586Y-111179484D01*
X72871183Y-111198187D01*
X72863138Y-111216777D01*
X72855756Y-111263381D01*
X72854552Y-111269193D01*
X72842819Y-111314893D01*
X72842819Y-111335148D01*
X72841268Y-111354858D01*
X72838099Y-111374867D01*
X72838099Y-111374868D01*
X72842539Y-111421842D01*
X72842819Y-111427775D01*
X72842819Y-112351644D01*
X72822817Y-112419765D01*
X72769161Y-112466258D01*
X72698887Y-112476362D01*
X72663806Y-112464763D01*
X72663462Y-112465548D01*
X72658688Y-112463453D01*
X72445831Y-112390380D01*
X72445820Y-112390377D01*
X72365319Y-112376943D01*
X72365319Y-113097303D01*
X72345317Y-113165424D01*
X72291661Y-113211917D01*
X72221388Y-113222020D01*
X72221387Y-113222020D01*
X72147087Y-113211337D01*
X72147082Y-113211337D01*
X72075556Y-113211337D01*
X72075550Y-113211337D01*
X72001251Y-113222020D01*
X71930977Y-113211917D01*
X71877321Y-113165424D01*
X71857319Y-113097303D01*
X71857319Y-112376944D01*
X71857318Y-112376943D01*
X71776817Y-112390377D01*
X71776806Y-112390380D01*
X71563949Y-112463453D01*
X71563947Y-112463454D01*
X71366018Y-112570568D01*
X71366017Y-112570569D01*
X71188416Y-112708802D01*
X71035993Y-112874378D01*
X70912899Y-113062788D01*
X70822498Y-113268880D01*
X70822495Y-113268887D01*
X70774774Y-113457336D01*
X70774775Y-113457337D01*
X71496475Y-113457337D01*
X71564596Y-113477339D01*
X71611089Y-113530995D01*
X71621193Y-113601269D01*
X71617372Y-113618833D01*
X71611319Y-113639448D01*
X71611319Y-113783225D01*
X71617372Y-113803841D01*
X71617371Y-113874837D01*
X71578986Y-113934563D01*
X71514405Y-113964055D01*
X71496475Y-113965337D01*
X70774774Y-113965337D01*
X70822495Y-114153786D01*
X70822498Y-114153793D01*
X70912899Y-114359885D01*
X71035993Y-114548295D01*
X71179300Y-114703969D01*
X71210720Y-114767634D01*
X71202733Y-114838180D01*
X71157874Y-114893209D01*
X71130632Y-114907361D01*
X71015114Y-114950448D01*
X71015111Y-114950449D01*
X70898057Y-115038075D01*
X70810431Y-115155129D01*
X70810429Y-115155134D01*
X70759330Y-115292132D01*
X70759328Y-115292140D01*
X70752819Y-115352687D01*
X70752819Y-117149986D01*
X70759328Y-117210533D01*
X70759330Y-117210541D01*
X70810429Y-117347539D01*
X70810431Y-117347544D01*
X70898057Y-117464598D01*
X71015111Y-117552224D01*
X71015113Y-117552225D01*
X71015115Y-117552226D01*
X71070219Y-117572779D01*
X71152114Y-117603325D01*
X71152122Y-117603327D01*
X71212669Y-117609836D01*
X71212674Y-117609836D01*
X71212681Y-117609837D01*
X71212687Y-117609837D01*
X73009951Y-117609837D01*
X73009957Y-117609837D01*
X73009964Y-117609836D01*
X73009968Y-117609836D01*
X73070515Y-117603327D01*
X73070518Y-117603326D01*
X73070520Y-117603326D01*
X73207523Y-117552226D01*
X73277718Y-117499679D01*
X73324580Y-117464598D01*
X73412205Y-117347545D01*
X73412204Y-117347545D01*
X73412208Y-117347541D01*
X73456318Y-117229276D01*
X73498864Y-117172444D01*
X73565385Y-117147633D01*
X73634759Y-117162725D01*
X73667072Y-117187972D01*
X73687848Y-117210541D01*
X73728081Y-117254245D01*
X73782650Y-117296718D01*
X73905743Y-117392526D01*
X74103745Y-117499679D01*
X74103746Y-117499679D01*
X74103747Y-117499680D01*
X74215546Y-117538060D01*
X74316684Y-117572781D01*
X74538750Y-117609837D01*
X74538754Y-117609837D01*
X74763884Y-117609837D01*
X74763888Y-117609837D01*
X74985954Y-117572781D01*
X75198893Y-117499679D01*
X75396895Y-117392526D01*
X75574559Y-117254243D01*
X75727041Y-117088605D01*
X75815837Y-116952691D01*
X75869839Y-116906605D01*
X75940187Y-116897029D01*
X76004544Y-116927006D01*
X76026799Y-116952690D01*
X76059926Y-117003395D01*
X76115594Y-117088602D01*
X76115598Y-117088607D01*
X76268081Y-117254245D01*
X76322650Y-117296718D01*
X76445743Y-117392526D01*
X76643745Y-117499679D01*
X76643746Y-117499679D01*
X76643747Y-117499680D01*
X76755546Y-117538060D01*
X76856684Y-117572781D01*
X77078750Y-117609837D01*
X77078754Y-117609837D01*
X77303884Y-117609837D01*
X77303888Y-117609837D01*
X77525954Y-117572781D01*
X77738893Y-117499679D01*
X77936895Y-117392526D01*
X78114559Y-117254243D01*
X78267041Y-117088605D01*
X78355838Y-116952690D01*
X78409837Y-116906605D01*
X78480185Y-116897029D01*
X78544543Y-116927005D01*
X78566801Y-116952693D01*
X78655594Y-117088602D01*
X78655598Y-117088607D01*
X78808081Y-117254245D01*
X78862650Y-117296718D01*
X78985743Y-117392526D01*
X79183745Y-117499679D01*
X79183746Y-117499679D01*
X79183747Y-117499680D01*
X79295546Y-117538060D01*
X79396684Y-117572781D01*
X79618750Y-117609837D01*
X79618754Y-117609837D01*
X79843884Y-117609837D01*
X79843888Y-117609837D01*
X80065954Y-117572781D01*
X80278893Y-117499679D01*
X80476895Y-117392526D01*
X80654559Y-117254243D01*
X80807041Y-117088605D01*
X80895837Y-116952691D01*
X80949839Y-116906605D01*
X81020187Y-116897029D01*
X81084544Y-116927006D01*
X81106799Y-116952690D01*
X81139926Y-117003395D01*
X81195594Y-117088602D01*
X81195598Y-117088607D01*
X81348081Y-117254245D01*
X81402650Y-117296718D01*
X81525743Y-117392526D01*
X81723745Y-117499679D01*
X81723746Y-117499679D01*
X81723747Y-117499680D01*
X81835546Y-117538060D01*
X81936684Y-117572781D01*
X82158750Y-117609837D01*
X82158754Y-117609837D01*
X82383884Y-117609837D01*
X82383888Y-117609837D01*
X82605954Y-117572781D01*
X82818893Y-117499679D01*
X83016895Y-117392526D01*
X83194559Y-117254243D01*
X83347041Y-117088605D01*
X83435837Y-116952691D01*
X83489839Y-116906605D01*
X83560187Y-116897029D01*
X83624544Y-116927006D01*
X83646799Y-116952690D01*
X83679926Y-117003395D01*
X83735594Y-117088602D01*
X83735598Y-117088607D01*
X83888081Y-117254245D01*
X83942650Y-117296718D01*
X84065743Y-117392526D01*
X84263745Y-117499679D01*
X84263746Y-117499679D01*
X84263747Y-117499680D01*
X84375546Y-117538060D01*
X84476684Y-117572781D01*
X84698750Y-117609837D01*
X84698754Y-117609837D01*
X84923884Y-117609837D01*
X84923888Y-117609837D01*
X85145954Y-117572781D01*
X85358893Y-117499679D01*
X85556895Y-117392526D01*
X85734559Y-117254243D01*
X85887041Y-117088605D01*
X86010179Y-116900128D01*
X86100615Y-116693953D01*
X86155883Y-116475705D01*
X86174475Y-116251337D01*
X86155883Y-116026969D01*
X86155882Y-116026964D01*
X86155881Y-116026959D01*
X86121595Y-115891572D01*
X86124262Y-115820626D01*
X86154642Y-115771546D01*
X86888662Y-115037527D01*
X86901098Y-115027567D01*
X86900910Y-115027339D01*
X86907013Y-115022288D01*
X86907018Y-115022286D01*
X86954984Y-114971206D01*
X86976135Y-114950056D01*
X86980445Y-114944498D01*
X86984274Y-114940015D01*
X87016586Y-114905607D01*
X87026346Y-114887851D01*
X87037195Y-114871336D01*
X87049614Y-114855327D01*
X87068363Y-114811996D01*
X87070953Y-114806709D01*
X87093695Y-114765346D01*
X87098733Y-114745720D01*
X87105137Y-114727018D01*
X87113180Y-114708433D01*
X87113179Y-114708433D01*
X87113181Y-114708431D01*
X87120561Y-114661833D01*
X87121762Y-114656026D01*
X87133500Y-114610316D01*
X87133500Y-114590061D01*
X87135051Y-114570349D01*
X87138220Y-114550343D01*
X87135629Y-114522937D01*
X87133780Y-114503366D01*
X87133500Y-114497434D01*
X87133500Y-113314594D01*
X87153502Y-113246473D01*
X87170405Y-113225498D01*
X87725500Y-112670404D01*
X87787812Y-112636379D01*
X87814595Y-112633500D01*
X90679786Y-112633500D01*
X90747907Y-112653502D01*
X90794400Y-112707158D01*
X90805786Y-112759500D01*
X90805786Y-119448649D01*
X90812295Y-119509196D01*
X90812297Y-119509204D01*
X90863396Y-119646202D01*
X90863398Y-119646207D01*
X90920879Y-119722991D01*
X90945690Y-119789511D01*
X90930599Y-119858885D01*
X90880397Y-119909087D01*
X90820011Y-119924500D01*
X90667827Y-119924500D01*
X90660766Y-119924103D01*
X90561687Y-119912937D01*
X90534180Y-119906658D01*
X90450117Y-119877241D01*
X90424698Y-119865000D01*
X90349292Y-119817617D01*
X90327235Y-119800027D01*
X90264265Y-119737055D01*
X90246674Y-119714996D01*
X90199292Y-119639587D01*
X90187051Y-119614171D01*
X90157636Y-119530104D01*
X90151360Y-119502603D01*
X90140182Y-119403391D01*
X90139786Y-119396332D01*
X90139786Y-113045529D01*
X90141700Y-113023648D01*
X90143408Y-113013955D01*
X90143410Y-113013952D01*
X90141700Y-113004253D01*
X90140535Y-112990940D01*
X90139786Y-112986692D01*
X90139786Y-112986688D01*
X90139784Y-112986683D01*
X90139034Y-112982428D01*
X90135576Y-112969522D01*
X90133867Y-112959829D01*
X90133867Y-112959828D01*
X90133865Y-112959827D01*
X90130348Y-112953735D01*
X90125835Y-112948355D01*
X90117302Y-112943429D01*
X90099311Y-112930831D01*
X90091765Y-112924499D01*
X90085167Y-112922097D01*
X90078238Y-112920875D01*
X90068540Y-112922586D01*
X90046661Y-112924500D01*
X88109816Y-112924500D01*
X88087936Y-112922586D01*
X88078238Y-112920875D01*
X88068540Y-112922586D01*
X88055224Y-112923750D01*
X88046739Y-112925246D01*
X88033825Y-112928706D01*
X88024113Y-112930419D01*
X88018023Y-112933934D01*
X88012640Y-112938452D01*
X88007712Y-112946987D01*
X87995121Y-112964969D01*
X87988785Y-112972519D01*
X87986383Y-112979119D01*
X87985162Y-112986048D01*
X87986872Y-112995746D01*
X87988786Y-113017624D01*
X87988786Y-119798500D01*
X87968784Y-119866621D01*
X87915128Y-119913114D01*
X87862786Y-119924500D01*
X68765786Y-119924500D01*
X68697665Y-119904498D01*
X68651172Y-119850842D01*
X68639786Y-119798500D01*
X68639786Y-101201500D01*
X68659788Y-101133379D01*
X68713444Y-101086886D01*
X68765786Y-101075500D01*
X110362786Y-101075500D01*
X110430907Y-101095502D01*
G37*
G04 #@! TD.AperFunction*
M02*
